<?xml version="1.0" standalone="no"?>
<!DOCTYPE svg PUBLIC "-//W3C//DTD SVG 20010904//EN"
 "http://www.w3.org/TR/2001/REC-SVG-20010904/DTD/svg10.dtd">
<svg version="1.0" xmlns="http://www.w3.org/2000/svg"
 width="1280.000000pt" height="806.000000pt" viewBox="0 0 1280.000000 806.000000"
 preserveAspectRatio="xMidYMid meet">
<g transform="translate(0.000000,806.000000) scale(0.100000,-0.100000)"
fill="#ffffff" stroke="none">
<path d="M280 7890 c0 -5 5 -10 10 -10 6 0 10 5 10 10 0 6 -4 10 -10 10 -5 0
-10 -4 -10 -10z"/>
<path d="M8735 7870 c-3 -5 -1 -10 4 -10 6 0 11 5 11 10 0 6 -2 10 -4 10 -3 0
-8 -4 -11 -10z"/>
<path d="M210 7848 c0 -27 -45 -68 -73 -68 -20 0 -19 -1 4 -26 18 -19 24 -36
23 -69 -1 -40 1 -43 21 -35 30 11 74 1 86 -21 14 -26 29 -24 29 4 0 30 39 67
70 67 l24 0 -26 28 c-21 21 -26 36 -24 70 2 38 0 42 -18 36 -12 -3 -23 -6 -26
-6 -29 -1 -43 5 -57 22 -23 26 -33 25 -33 -2z"/>
<path d="M735 7860 c-8 -14 3 -30 21 -30 8 0 14 9 14 20 0 21 -24 28 -35 10z"/>
<path d="M130 7850 c0 -5 5 -10 10 -10 6 0 10 5 10 10 0 6 -4 10 -10 10 -5 0
-10 -4 -10 -10z"/>
<path d="M3711 7842 c-30 -21 -61 -23 -86 -6 -27 19 -34 17 -28 -6 7 -28 -18
-77 -47 -90 l-25 -12 32 -13 c32 -14 49 -44 44 -82 -3 -26 11 -30 29 -8 14 17
75 20 85 5 10 -16 35 -12 29 5 -11 27 6 65 37 84 l31 19 -31 16 c-29 15 -36
30 -43 82 -3 21 -4 21 -27 6z"/>
<path d="M1452 7833 c2 -10 10 -18 18 -18 8 0 16 8 18 18 2 12 -3 17 -18 17
-15 0 -20 -5 -18 -17z"/>
<path d="M8900 7840 c0 -5 5 -10 10 -10 6 0 10 5 10 10 0 6 -4 10 -10 10 -5 0
-10 -4 -10 -10z"/>
<path d="M4310 7830 c0 -5 5 -10 10 -10 6 0 10 5 10 10 0 6 -4 10 -10 10 -5 0
-10 -4 -10 -10z"/>
<path d="M3525 7810 c-3 -5 1 -10 10 -10 9 0 13 5 10 10 -3 6 -8 10 -10 10 -2
0 -7 -4 -10 -10z"/>
<path d="M8691 7809 c4 -22 -10 -57 -26 -63 -12 -4 -10 -11 10 -32 14 -15 25
-32 25 -38 0 -6 19 -11 45 -11 36 0 45 3 45 18 0 9 9 26 20 37 l20 20 -20 20
c-11 11 -20 29 -20 40 0 16 -4 19 -17 12 -20 -9 -55 -8 -72 3 -8 4 -11 2 -10
-6z"/>
<path d="M10724 7809 c-8 -14 11 -33 25 -25 6 4 11 14 11 22 0 16 -26 19 -36
3z"/>
<path d="M12207 7804 c-14 -15 -6 -34 14 -34 14 0 19 5 17 17 -3 18 -20 27
-31 17z"/>
<path d="M395 7780 c3 -5 8 -10 11 -10 2 0 4 5 4 10 0 6 -5 10 -11 10 -5 0 -7
-4 -4 -10z"/>
<path d="M9820 7779 c0 -5 5 -7 10 -4 6 3 10 8 10 11 0 2 -4 4 -10 4 -5 0 -10
-5 -10 -11z"/>
<path d="M4155 7770 c-3 -5 -1 -10 4 -10 6 0 11 5 11 10 0 6 -2 10 -4 10 -3 0
-8 -4 -11 -10z"/>
<path d="M7270 7750 c0 -15 5 -20 18 -18 9 2 17 10 17 18 0 8 -8 16 -17 18
-13 2 -18 -3 -18 -18z"/>
<path d="M2843 7744 c-7 -19 11 -39 26 -30 16 10 13 33 -4 40 -9 3 -18 -1 -22
-10z"/>
<path d="M9750 7741 c0 -34 -28 -69 -62 -76 l-31 -7 29 -23 c25 -20 29 -30 28
-69 -1 -40 1 -44 17 -36 30 16 71 11 96 -12 l23 -21 0 24 c0 31 44 79 73 79
21 0 20 2 -8 24 -26 21 -30 30 -29 70 1 40 -1 44 -17 36 -30 -16 -71 -11 -96
12 l-23 21 0 -22z"/>
<path d="M4217 7738 c-3 -9 -19 -22 -35 -29 -27 -12 -29 -16 -21 -43 6 -19 5
-34 -2 -43 -9 -10 -7 -13 9 -13 11 0 30 -8 42 -18 23 -18 24 -18 42 0 10 10
27 18 38 18 17 0 19 4 14 28 -4 15 -8 29 -10 31 -2 2 1 12 6 21 8 15 4 19 -22
24 -17 3 -36 13 -43 22 -10 15 -12 15 -18 2z"/>
<path d="M6654 7739 c-3 -6 -2 -15 4 -21 13 -13 32 -2 32 18 0 16 -26 19 -36
3z"/>
<path d="M5992 7723 c2 -10 10 -18 18 -18 22 0 18 29 -3 33 -14 3 -18 -1 -15
-15z"/>
<path d="M9670 7730 c0 -5 5 -10 10 -10 6 0 10 5 10 10 0 6 -4 10 -10 10 -5 0
-10 -4 -10 -10z"/>
<path d="M4940 7719 c0 -5 5 -7 10 -4 6 3 10 8 10 11 0 2 -4 4 -10 4 -5 0 -10
-5 -10 -11z"/>
<path d="M4750 7680 c0 -5 5 -10 11 -10 5 0 7 5 4 10 -3 6 -8 10 -11 10 -2 0
-4 -4 -4 -10z"/>
<path d="M9940 7679 c0 -5 5 -7 10 -4 6 3 10 8 10 11 0 2 -4 4 -10 4 -5 0 -10
-5 -10 -11z"/>
<path d="M3800 7660 c0 -5 5 -10 10 -10 6 0 10 5 10 10 0 6 -4 10 -10 10 -5 0
-10 -4 -10 -10z"/>
<path d="M4920 7659 c0 -5 5 -7 10 -4 6 3 10 8 10 11 0 2 -4 4 -10 4 -5 0 -10
-5 -10 -11z"/>
<path d="M3530 7650 c0 -5 5 -10 10 -10 6 0 10 5 10 10 0 6 -4 10 -10 10 -5 0
-10 -4 -10 -10z"/>
<path d="M5530 7639 c0 -5 5 -7 10 -4 6 3 10 8 10 11 0 2 -4 4 -10 4 -5 0 -10
-5 -10 -11z"/>
<path d="M5455 7618 c-8 -32 -44 -58 -80 -58 l-26 0 20 -26 c23 -29 27 -64 11
-95 -9 -17 -7 -19 17 -19 46 0 68 -10 85 -37 l16 -26 7 24 c11 36 40 59 75 59
l31 0 -22 29 c-21 29 -23 61 -4 104 6 13 4 16 -9 11 -31 -12 -81 5 -98 33
l-16 28 -7 -27z"/>
<path d="M11730 7622 c0 -37 -22 -71 -53 -81 l-29 -11 32 -30 c28 -26 32 -35
27 -65 -5 -33 5 -47 18 -25 9 15 68 12 93 -6 21 -14 22 -14 22 6 0 30 27 67
56 74 29 8 31 22 3 31 -25 8 -42 51 -34 83 5 21 3 23 -12 17 -39 -17 -78 -14
-100 7 l-23 21 0 -21z"/>
<path d="M4870 7624 c0 -19 -36 -54 -55 -54 -17 0 -17 -1 0 -20 11 -13 16 -30
13 -50 -4 -26 -2 -29 14 -24 10 3 32 -1 48 -10 26 -12 30 -12 30 0 0 8 13 22
28 32 26 16 27 19 15 42 -7 14 -10 33 -7 43 4 14 -1 17 -30 17 -23 0 -39 6
-45 18 -6 9 -11 12 -11 6z"/>
<path d="M11655 7600 c3 -5 8 -10 11 -10 2 0 4 5 4 10 0 6 -5 10 -11 10 -5 0
-7 -4 -4 -10z"/>
<path d="M2164 7589 c-8 -14 11 -33 25 -25 16 10 13 36 -3 36 -8 0 -18 -5 -22
-11z"/>
<path d="M8005 7581 c-8 -15 3 -31 21 -31 9 0 14 7 12 17 -4 20 -24 28 -33 14z"/>
<path d="M9645 7580 c-3 -5 -1 -10 4 -10 6 0 11 5 11 10 0 6 -2 10 -4 10 -3 0
-8 -4 -11 -10z"/>
<path d="M4290 7550 c0 -5 5 -10 11 -10 5 0 7 5 4 10 -3 6 -8 10 -11 10 -2 0
-4 -4 -4 -10z"/>
<path d="M9910 7530 c0 -5 5 -10 10 -10 6 0 10 5 10 10 0 6 -4 10 -10 10 -5 0
-10 -4 -10 -10z"/>
<path d="M11350 7529 c0 -5 5 -7 10 -4 6 3 10 8 10 11 0 2 -4 4 -10 4 -5 0
-10 -5 -10 -11z"/>
<path d="M5625 7520 c-3 -5 -1 -10 4 -10 6 0 11 5 11 10 0 6 -2 10 -4 10 -3 0
-8 -4 -11 -10z"/>
<path d="M4135 7490 c-3 -5 -1 -10 4 -10 6 0 11 5 11 10 0 6 -2 10 -4 10 -3 0
-8 -4 -11 -10z"/>
<path d="M5320 7479 c0 -5 5 -7 10 -4 6 3 10 8 10 11 0 2 -4 4 -10 4 -5 0 -10
-5 -10 -11z"/>
<path d="M9765 7480 c-3 -5 -1 -10 4 -10 6 0 11 5 11 10 0 6 -2 10 -4 10 -3 0
-8 -4 -11 -10z"/>
<path d="M11310 7479 c0 -5 5 -7 10 -4 6 3 10 8 10 11 0 2 -4 4 -10 4 -5 0
-10 -5 -10 -11z"/>
<path d="M565 7470 c-3 -5 -1 -10 4 -10 6 0 11 5 11 10 0 6 -2 10 -4 10 -3 0
-8 -4 -11 -10z"/>
<path d="M11238 7454 c-9 -10 -31 -17 -47 -17 -24 0 -28 -4 -22 -15 9 -16 4
-50 -12 -69 -7 -10 -4 -13 9 -13 23 -1 54 -23 54 -39 0 -6 5 -11 10 -11 6 0
10 4 10 9 0 10 38 26 56 23 5 -1 10 14 11 33 1 20 7 42 13 50 10 12 9 15 -6
15 -22 1 -49 19 -55 38 -3 9 -8 8 -21 -4z"/>
<path d="M1340 7450 c0 -5 5 -10 11 -10 5 0 7 5 4 10 -3 6 -8 10 -11 10 -2 0
-4 -4 -4 -10z"/>
<path d="M6380 7450 c0 -5 5 -10 10 -10 6 0 10 5 10 10 0 6 -4 10 -10 10 -5 0
-10 -4 -10 -10z"/>
<path d="M9110 7442 c0 -26 -33 -62 -57 -62 -31 0 -35 -12 -12 -36 18 -19 21
-31 16 -68 -6 -45 -6 -45 18 -36 28 11 64 1 84 -24 15 -18 31 -12 31 12 0 24
35 52 65 52 30 0 32 13 5 31 -21 14 -29 60 -16 90 6 13 0 16 -40 15 -38 -1
-49 3 -61 22 -19 27 -33 29 -33 4z"/>
<path d="M11635 7450 c-3 -5 -2 -10 4 -10 5 0 13 5 16 10 3 6 2 10 -4 10 -5 0
-13 -4 -16 -10z"/>
<path d="M9035 7440 c3 -5 8 -10 11 -10 2 0 4 5 4 10 0 6 -5 10 -11 10 -5 0
-7 -4 -4 -10z"/>
<path d="M6310 7419 c0 -33 -28 -66 -64 -75 l-27 -6 22 -24 c23 -24 29 -65 14
-98 -7 -17 -6 -18 11 -11 33 15 74 9 98 -14 l24 -22 6 27 c9 33 41 64 68 64
24 0 23 14 -2 31 -22 15 -29 60 -15 93 7 16 5 17 -16 10 -40 -13 -72 -5 -96
24 l-22 27 -1 -26z"/>
<path d="M613 7419 c-6 -6 -27 -11 -46 -11 -27 0 -34 -4 -31 -16 2 -10 -2 -28
-9 -42 -11 -23 -10 -27 15 -48 15 -13 28 -30 28 -39 0 -12 3 -12 17 2 10 11
27 15 45 13 26 -4 28 -2 28 28 0 17 7 37 15 44 14 11 13 14 -7 24 -12 6 -28
21 -34 33 -7 16 -14 19 -21 12z"/>
<path d="M11900 7420 c0 -5 5 -10 10 -10 6 0 10 5 10 10 0 6 -4 10 -10 10 -5
0 -10 -4 -10 -10z"/>
<path d="M6230 7410 c0 -5 5 -10 10 -10 6 0 10 5 10 10 0 6 -4 10 -10 10 -5 0
-10 -4 -10 -10z"/>
<path d="M5560 7380 c0 -5 5 -10 10 -10 6 0 10 5 10 10 0 6 -4 10 -10 10 -5 0
-10 -4 -10 -10z"/>
<path d="M1515 7360 c-3 -5 -1 -10 4 -10 6 0 11 5 11 10 0 6 -2 10 -4 10 -3 0
-8 -4 -11 -10z"/>
<path d="M5410 7360 c0 -5 5 -10 10 -10 6 0 10 5 10 10 0 6 -4 10 -10 10 -5 0
-10 -4 -10 -10z"/>
<path d="M11360 7359 c0 -5 5 -7 10 -4 6 3 10 8 10 11 0 2 -4 4 -10 4 -5 0
-10 -5 -10 -11z"/>
<path d="M11760 7360 c0 -5 5 -10 10 -10 6 0 10 5 10 10 0 6 -4 10 -10 10 -5
0 -10 -4 -10 -10z"/>
<path d="M12477 7364 c-14 -15 -6 -34 14 -34 14 0 19 5 17 17 -3 18 -20 27
-31 17z"/>
<path d="M3990 7350 c0 -5 5 -10 11 -10 5 0 7 5 4 10 -3 6 -8 10 -11 10 -2 0
-4 -4 -4 -10z"/>
<path d="M4830 7349 c0 -5 5 -7 10 -4 6 3 10 8 10 11 0 2 -4 4 -10 4 -5 0 -10
-5 -10 -11z"/>
<path d="M6490 7340 c0 -5 5 -10 10 -10 6 0 10 5 10 10 0 6 -4 10 -10 10 -5 0
-10 -4 -10 -10z"/>
<path d="M1386 7332 c-5 -9 -21 -12 -42 -10 -26 3 -34 0 -34 -12 0 -9 -9 -26
-20 -38 l-20 -22 20 -20 c11 -11 20 -30 20 -42 0 -17 3 -19 12 -10 7 7 24 12
38 12 14 0 31 -5 38 -12 9 -9 12 -6 12 15 0 15 8 35 18 45 18 18 18 20 -4 41
-12 12 -24 32 -26 44 -2 16 -5 19 -12 9z"/>
<path d="M10386 7305 c-3 -8 -17 -17 -30 -21 -22 -5 -25 -10 -20 -33 4 -14 8
-28 10 -30 2 -2 -1 -12 -7 -22 -8 -16 -6 -19 16 -19 14 0 34 -9 44 -19 19 -19
20 -19 35 4 9 13 24 26 35 30 16 5 18 11 11 36 -5 17 -6 37 -3 45 3 9 -1 14
-14 14 -11 0 -28 7 -39 15 -24 18 -31 18 -38 0z"/>
<path d="M8990 7289 c0 -5 5 -7 10 -4 6 3 10 8 10 11 0 2 -4 4 -10 4 -5 0 -10
-5 -10 -11z"/>
<path d="M6190 7260 c0 -5 5 -10 10 -10 6 0 10 5 10 10 0 6 -4 10 -10 10 -5 0
-10 -4 -10 -10z"/>
<path d="M7275 7240 c-3 -5 -1 -10 4 -10 6 0 11 5 11 10 0 6 -2 10 -4 10 -3 0
-8 -4 -11 -10z"/>
<path d="M3950 7217 c0 -15 -8 -35 -18 -45 -18 -18 -18 -20 5 -42 12 -12 23
-28 23 -36 0 -10 8 -12 30 -8 18 4 36 1 45 -6 13 -10 15 -9 15 9 0 12 10 32
23 45 l23 23 -23 17 c-14 10 -23 28 -23 43 0 21 -3 24 -12 15 -7 -7 -24 -12
-38 -12 -14 0 -31 5 -38 12 -9 9 -12 6 -12 -15z"/>
<path d="M620 7220 c0 -5 5 -10 11 -10 5 0 7 5 4 10 -3 6 -8 10 -11 10 -2 0
-4 -4 -4 -10z"/>
<path d="M10270 7219 c0 -5 5 -7 10 -4 6 3 10 8 10 11 0 2 -4 4 -10 4 -5 0
-10 -5 -10 -11z"/>
<path d="M6450 7190 c0 -5 5 -10 10 -10 6 0 10 5 10 10 0 6 -4 10 -10 10 -5 0
-10 -4 -10 -10z"/>
<path d="M9095 7180 c3 -5 8 -10 11 -10 2 0 4 5 4 10 0 6 -5 10 -11 10 -5 0
-7 -4 -4 -10z"/>
<path d="M6300 7150 c0 -5 5 -10 10 -10 6 0 10 5 10 10 0 6 -4 10 -10 10 -5 0
-10 -4 -10 -10z"/>
<path d="M7314 7119 c-4 -7 -21 -9 -40 -6 -29 5 -34 3 -34 -14 0 -10 -8 -27
-18 -37 -18 -18 -18 -20 5 -42 12 -12 23 -31 23 -42 0 -17 3 -18 15 -8 8 7 28
10 45 8 24 -4 30 -1 30 14 0 10 9 27 20 38 l20 20 -20 20 c-11 11 -20 29 -20
40 0 22 -15 27 -26 9z"/>
<path d="M2370 7072 c0 -34 -33 -72 -63 -72 -21 -1 -20 -2 8 -25 26 -21 30
-31 29 -69 l-1 -45 26 13 c32 15 59 10 89 -17 l22 -20 0 24 c0 32 26 68 58 80
l27 10 -25 19 c-20 15 -24 27 -25 64 0 37 -3 45 -15 40 -39 -18 -76 -15 -94 5
-26 28 -36 26 -36 -7z"/>
<path d="M3195 7080 c3 -5 8 -10 11 -10 2 0 4 5 4 10 0 6 -5 10 -11 10 -5 0
-7 -4 -4 -10z"/>
<path d="M290 7070 c0 -5 5 -10 11 -10 5 0 7 5 4 10 -3 6 -8 10 -11 10 -2 0
-4 -4 -4 -10z"/>
<path d="M2300 7070 c0 -5 5 -10 11 -10 5 0 7 5 4 10 -3 6 -8 10 -11 10 -2 0
-4 -4 -4 -10z"/>
<path d="M3259 7054 c-18 -26 -60 -37 -94 -24 -24 9 -26 8 -19 -7 14 -32 7
-73 -16 -98 l-23 -24 27 -7 c31 -7 66 -48 66 -78 1 -20 1 -20 21 3 16 20 30
25 69 25 46 0 48 1 39 23 -10 26 1 62 25 82 23 19 20 31 -7 31 -26 0 -56 32
-66 69 -7 25 -7 25 -22 5z"/>
<path d="M4165 7060 c3 -5 8 -10 11 -10 2 0 4 5 4 10 0 6 -5 10 -11 10 -5 0
-7 -4 -4 -10z"/>
<path d="M10325 7060 c-3 -5 -1 -10 4 -10 6 0 11 5 11 10 0 6 -2 10 -4 10 -3
0 -8 -4 -11 -10z"/>
<path d="M209 7033 c-13 -35 -37 -52 -73 -53 l-29 0 21 -23 c24 -25 28 -66 11
-98 -9 -18 -7 -19 24 -17 34 2 87 -23 87 -42 0 -6 5 -10 10 -10 6 0 10 6 10
14 0 29 41 66 72 66 30 0 31 1 14 19 -21 23 -32 86 -17 96 24 14 10 26 -24 19
-30 -5 -39 -2 -65 25 l-31 30 -10 -26z"/>
<path d="M5140 7038 c0 -10 -9 -27 -20 -38 -19 -19 -19 -20 5 -46 14 -15 25
-34 25 -42 0 -12 3 -12 15 -2 9 7 27 10 45 6 25 -5 30 -2 30 14 0 11 9 29 20
40 17 17 18 21 6 26 -13 5 -32 40 -29 54 1 3 -21 5 -48 5 -40 0 -49 -3 -49
-17z"/>
<path d="M135 7040 c3 -5 8 -10 11 -10 2 0 4 5 4 10 0 6 -5 10 -11 10 -5 0 -7
-4 -4 -10z"/>
<path d="M2565 7030 c-3 -5 -1 -10 4 -10 6 0 11 5 11 10 0 6 -2 10 -4 10 -3 0
-8 -4 -11 -10z"/>
<path d="M5920 7029 c0 -5 5 -7 10 -4 6 3 10 8 10 11 0 2 -4 4 -10 4 -5 0 -10
-5 -10 -11z"/>
<path d="M8525 7000 c-8 -14 3 -30 21 -30 8 0 14 9 14 20 0 21 -24 28 -35 10z"/>
<path d="M10995 7000 c-3 -5 -1 -10 4 -10 6 0 11 5 11 10 0 6 -2 10 -4 10 -3
0 -8 -4 -11 -10z"/>
<path d="M3085 6980 c-3 -5 -1 -10 4 -10 6 0 11 5 11 10 0 6 -2 10 -4 10 -3 0
-8 -4 -11 -10z"/>
<path d="M10920 6979 c0 -30 -40 -69 -71 -69 -33 0 -36 -6 -14 -30 17 -19 21
-62 10 -98 -6 -18 -4 -21 9 -16 32 12 82 -5 96 -34 l13 -27 10 30 c13 37 45
64 76 65 22 0 23 1 9 18 -21 23 -32 78 -19 87 25 15 9 30 -30 30 -34 0 -46 6
-65 30 -16 21 -24 25 -24 14z"/>
<path d="M10840 6970 c0 -5 5 -10 10 -10 6 0 10 5 10 10 0 6 -4 10 -10 10 -5
0 -10 -4 -10 -10z"/>
<path d="M11887 6964 c-9 -9 4 -34 18 -34 14 0 27 25 18 34 -4 3 -12 6 -18 6
-6 0 -14 -3 -18 -6z"/>
<path d="M385 6950 c-3 -5 1 -10 10 -10 9 0 13 5 10 10 -3 6 -8 10 -10 10 -2
0 -7 -4 -10 -10z"/>
<path d="M7120 6940 c0 -5 5 -10 10 -10 6 0 10 5 10 10 0 6 -4 10 -10 10 -5 0
-10 -4 -10 -10z"/>
<path d="M5850 6927 c0 -9 -13 -26 -29 -38 -27 -20 -28 -23 -15 -48 8 -14 11
-34 8 -44 -5 -15 -2 -18 13 -13 10 3 30 -1 45 -8 25 -13 28 -12 42 9 9 13 25
26 36 30 18 6 18 8 5 21 -8 9 -15 28 -15 43 0 24 -4 29 -25 29 -14 0 -35 8
-45 17 -18 16 -20 16 -20 2z"/>
<path d="M1705 6921 c-3 -5 -1 -12 5 -16 5 -3 10 1 10 9 0 18 -6 21 -15 7z"/>
<path d="M2275 6910 c4 -6 11 -8 16 -5 14 9 11 15 -7 15 -8 0 -12 -5 -9 -10z"/>
<path d="M80 6900 c0 -5 5 -10 10 -10 6 0 10 5 10 10 0 6 -4 10 -10 10 -5 0
-10 -4 -10 -10z"/>
<path d="M1767 6877 c-11 -17 -24 -22 -60 -22 l-45 0 3 -42 c3 -31 -1 -45 -16
-59 -25 -23 -24 -34 4 -34 26 0 54 -29 63 -67 l7 -26 20 24 c16 20 28 24 68
23 44 0 47 1 38 19 -14 24 -3 66 23 95 l21 22 -24 0 c-31 1 -69 33 -69 59 0
30 -16 34 -33 8z"/>
<path d="M1855 6880 c-3 -5 -1 -10 4 -10 6 0 11 5 11 10 0 6 -2 10 -4 10 -3 0
-8 -4 -11 -10z"/>
<path d="M5995 6880 c-3 -5 -1 -10 4 -10 6 0 11 5 11 10 0 6 -2 10 -4 10 -3 0
-8 -4 -11 -10z"/>
<path d="M6425 6870 c-3 -5 -1 -10 4 -10 6 0 11 5 11 10 0 6 -2 10 -4 10 -3 0
-8 -4 -11 -10z"/>
<path d="M7295 6850 c3 -5 8 -10 11 -10 2 0 4 5 4 10 0 6 -5 10 -11 10 -5 0
-7 -4 -4 -10z"/>
<path d="M3120 6830 c0 -5 5 -10 10 -10 6 0 10 5 10 10 0 6 -4 10 -10 10 -5 0
-10 -4 -10 -10z"/>
<path d="M10780 6830 c0 -5 5 -10 10 -10 6 0 10 5 10 10 0 6 -4 10 -10 10 -5
0 -10 -4 -10 -10z"/>
<path d="M12541 6817 c-9 -11 -8 -17 4 -27 12 -10 16 -9 21 5 9 23 -10 40 -25
22z"/>
<path d="M6535 6797 c-6 -11 -19 -25 -30 -31 -11 -6 -22 -12 -24 -13 -2 -2 2
-9 9 -18 7 -8 10 -28 8 -45 -4 -24 -1 -29 11 -25 9 2 29 -2 45 -10 35 -18 36
-18 36 -2 0 11 10 19 58 43 1 0 -4 14 -13 30 -8 16 -13 36 -10 44 3 11 -4 15
-27 16 -17 1 -36 8 -43 17 -10 13 -12 13 -20 -6z"/>
<path d="M9442 6803 c2 -10 10 -18 18 -18 22 0 18 29 -3 33 -14 3 -18 -1 -15
-15z"/>
<path d="M330 6800 c0 -5 5 -10 10 -10 6 0 10 5 10 10 0 6 -4 10 -10 10 -5 0
-10 -4 -10 -10z"/>
<path d="M1600 6799 c0 -5 5 -7 10 -4 6 3 10 8 10 11 0 2 -4 4 -10 4 -5 0 -10
-5 -10 -11z"/>
<path d="M3270 6790 c0 -5 5 -10 11 -10 5 0 7 5 4 10 -3 6 -8 10 -11 10 -2 0
-4 -4 -4 -10z"/>
<path d="M5190 6790 c0 -5 5 -10 10 -10 6 0 10 5 10 10 0 6 -4 10 -10 10 -5 0
-10 -4 -10 -10z"/>
<path d="M1900 6730 c0 -5 5 -10 11 -10 5 0 7 5 4 10 -3 6 -8 10 -11 10 -2 0
-4 -4 -4 -10z"/>
<path d="M11030 6730 c0 -5 5 -10 10 -10 6 0 10 5 10 10 0 6 -4 10 -10 10 -5
0 -10 -4 -10 -10z"/>
<path d="M7896 6704 c-9 -36 -42 -64 -75 -64 l-26 0 29 -26 c25 -24 28 -32 22
-70 -5 -43 -5 -43 19 -34 31 12 67 -1 87 -29 17 -24 28 -18 28 13 0 26 33 56
60 56 27 0 34 17 12 29 -23 12 -36 65 -22 91 9 17 6 18 -34 17 -34 -2 -50 3
-69 21 l-25 23 -6 -27z"/>
<path d="M7820 6710 c0 -5 5 -10 10 -10 6 0 10 5 10 10 0 6 -4 10 -10 10 -5 0
-10 -4 -10 -10z"/>
<path d="M10880 6710 c0 -5 5 -10 10 -10 6 0 10 5 10 10 0 6 -4 10 -10 10 -5
0 -10 -4 -10 -10z"/>
<path d="M4575 6660 c-8 -14 3 -30 21 -30 8 0 14 9 14 20 0 21 -24 28 -35 10z"/>
<path d="M1640 6649 c0 -5 5 -7 10 -4 6 3 10 8 10 11 0 2 -4 4 -10 4 -5 0 -10
-5 -10 -11z"/>
<path d="M990 6641 c0 -11 -39 -24 -63 -21 -15 1 -17 -2 -9 -16 10 -18 5 -51
-11 -71 -7 -10 -4 -13 9 -13 23 -1 54 -23 54 -39 0 -16 7 -14 30 9 11 11 29
20 41 20 14 0 19 5 16 14 -3 8 -2 28 2 44 8 25 5 30 -20 41 -16 7 -29 19 -29
27 0 8 -4 14 -10 14 -5 0 -10 -4 -10 -9z"/>
<path d="M6640 6630 c0 -5 5 -10 10 -10 6 0 10 5 10 10 0 6 -4 10 -10 10 -5 0
-10 -4 -10 -10z"/>
<path d="M8078 6633 c7 -3 16 -2 19 1 4 3 -2 6 -13 5 -11 0 -14 -3 -6 -6z"/>
<path d="M1790 6620 c0 -5 5 -10 11 -10 5 0 7 5 4 10 -3 6 -8 10 -11 10 -2 0
-4 -4 -4 -10z"/>
<path d="M11560 6619 c0 -5 5 -7 10 -4 6 3 10 8 10 11 0 2 -4 4 -10 4 -5 0
-10 -5 -10 -11z"/>
<path d="M375 6610 c3 -5 8 -10 11 -10 2 0 4 5 4 10 0 6 -5 10 -11 10 -5 0 -7
-4 -4 -10z"/>
<path d="M307 6583 c-4 -3 -7 -16 -7 -28 0 -25 -34 -65 -55 -65 -22 0 -18 -15
8 -33 18 -12 22 -23 21 -60 -1 -41 1 -45 17 -37 30 16 71 11 96 -12 l23 -21 0
25 c0 32 36 78 61 78 25 0 24 14 -3 32 -18 12 -22 25 -23 62 0 37 -3 45 -15
40 -40 -18 -72 -16 -94 5 -12 12 -26 18 -29 14z"/>
<path d="M11500 6558 c-1 -38 -14 -59 -50 -78 l-25 -13 26 -9 c29 -10 49 -45
49 -85 0 -25 1 -25 25 -9 13 9 34 16 45 16 11 0 32 -7 45 -16 25 -16 25 -16
25 14 0 45 9 61 43 79 l31 15 -31 13 c-33 14 -43 32 -43 76 0 32 -11 37 -30
14 -16 -19 -60 -19 -88 1 -21 15 -22 14 -22 -18z"/>
<path d="M10110 6560 c0 -15 5 -20 18 -18 9 2 17 10 17 18 0 8 -8 16 -17 18
-13 2 -18 -3 -18 -18z"/>
<path d="M230 6560 c0 -5 5 -10 11 -10 5 0 7 5 4 10 -3 6 -8 10 -11 10 -2 0
-4 -4 -4 -10z"/>
<path d="M7780 6559 c0 -5 5 -7 10 -4 6 3 10 8 10 11 0 2 -4 4 -10 4 -5 0 -10
-5 -10 -11z"/>
<path d="M11425 6550 c-3 -5 -1 -10 4 -10 6 0 11 5 11 10 0 6 -2 10 -4 10 -3
0 -8 -4 -11 -10z"/>
<path d="M11695 6550 c-3 -5 -1 -10 4 -10 6 0 11 5 11 10 0 6 -2 10 -4 10 -3
0 -8 -4 -11 -10z"/>
<path d="M1175 6540 c3 -5 8 -10 11 -10 2 0 4 5 4 10 0 6 -5 10 -11 10 -5 0
-7 -4 -4 -10z"/>
<path d="M495 6520 c-3 -5 -1 -10 4 -10 6 0 11 5 11 10 0 6 -2 10 -4 10 -3 0
-8 -4 -11 -10z"/>
<path d="M5670 6500 c0 -5 5 -10 11 -10 5 0 7 5 4 10 -3 6 -8 10 -11 10 -2 0
-4 -4 -4 -10z"/>
<path d="M7885 6450 c-3 -5 -1 -10 4 -10 6 0 11 5 11 10 0 6 -2 10 -4 10 -3 0
-8 -4 -11 -10z"/>
<path d="M3885 6418 c-6 -13 -19 -27 -30 -33 -19 -9 -19 -13 -8 -35 7 -14 11
-33 9 -42 -3 -14 2 -18 27 -18 17 0 39 -7 49 -17 17 -15 18 -15 18 1 0 21 23
46 44 46 13 0 13 4 -1 31 -8 16 -13 38 -10 48 3 14 -3 17 -31 17 -20 0 -37 5
-40 12 -6 18 -16 14 -27 -10z"/>
<path d="M5574 6406 c-6 -16 -41 -32 -61 -28 -9 2 -9 -5 0 -28 9 -23 9 -35 -1
-50 -11 -18 -10 -20 8 -20 12 0 32 -11 45 -25 14 -13 25 -20 25 -15 0 18 32
40 58 40 20 0 23 3 14 12 -7 7 -12 24 -12 38 0 14 5 31 12 38 9 9 6 12 -15 12
-15 0 -36 9 -47 20 -17 17 -21 18 -26 6z"/>
<path d="M205 6400 c4 -6 11 -8 16 -5 14 9 11 15 -7 15 -8 0 -12 -5 -9 -10z"/>
<path d="M11430 6389 c0 -5 5 -7 10 -4 6 3 10 8 10 11 0 2 -4 4 -10 4 -5 0
-10 -5 -10 -11z"/>
<path d="M11695 6390 c3 -5 8 -10 11 -10 2 0 4 5 4 10 0 6 -5 10 -11 10 -5 0
-7 -4 -4 -10z"/>
<path d="M470 6360 c0 -5 5 -10 10 -10 6 0 10 5 10 10 0 6 -4 10 -10 10 -5 0
-10 -4 -10 -10z"/>
<path d="M2290 6340 c0 -15 5 -20 18 -18 9 2 17 10 17 18 0 8 -8 16 -17 18
-13 2 -18 -3 -18 -18z"/>
<path d="M2985 6330 c3 -5 8 -10 11 -10 2 0 4 5 4 10 0 6 -5 10 -11 10 -5 0
-7 -4 -4 -10z"/>
<path d="M5770 6329 c0 -5 5 -7 10 -4 6 3 10 8 10 11 0 2 -4 4 -10 4 -5 0 -10
-5 -10 -11z"/>
<path d="M8583 6324 c-9 -23 11 -38 26 -20 13 16 7 36 -10 36 -5 0 -12 -7 -16
-16z"/>
<path d="M12289 6309 c-20 -22 -36 -29 -64 -29 -37 0 -37 0 -22 -23 18 -28 14
-72 -9 -98 -17 -18 -16 -19 18 -19 36 0 78 -29 78 -55 0 -22 18 -18 25 6 7 22
42 39 81 39 24 0 32 14 14 25 -15 9 -12 68 6 93 15 21 14 22 -13 22 -29 0 -64
23 -79 51 -8 15 -12 13 -35 -12z"/>
<path d="M12380 6329 c0 -5 5 -7 10 -4 6 3 10 8 10 11 0 2 -4 4 -10 4 -5 0
-10 -5 -10 -11z"/>
<path d="M3050 6305 c-14 -26 -57 -40 -91 -30 -19 6 -21 4 -14 -11 19 -46 18
-75 -6 -100 l-22 -24 25 0 c30 0 78 -39 78 -63 0 -21 18 -23 26 -2 10 24 56
42 88 34 24 -7 27 -5 20 9 -18 42 -16 74 5 103 l22 29 -26 0 c-34 0 -75 28
-75 51 0 28 -16 31 -30 4z"/>
<path d="M11565 6320 c-3 -5 -1 -10 4 -10 6 0 11 5 11 10 0 6 -2 10 -4 10 -3
0 -8 -4 -11 -10z"/>
<path d="M325 6310 c-3 -5 -1 -10 4 -10 6 0 11 5 11 10 0 6 -2 10 -4 10 -3 0
-8 -4 -11 -10z"/>
<path d="M7520 6290 c0 -5 5 -10 10 -10 6 0 10 5 10 10 0 6 -4 10 -10 10 -5 0
-10 -4 -10 -10z"/>
<path d="M10916 6291 c-3 -5 0 -14 8 -20 10 -8 16 -8 25 2 6 8 8 17 4 20 -9
10 -31 9 -37 -2z"/>
<path d="M1525 6280 c3 -5 8 -10 11 -10 2 0 4 5 4 10 0 6 -5 10 -11 10 -5 0
-7 -4 -4 -10z"/>
<path d="M6850 6270 c0 -27 -39 -60 -72 -60 -33 0 -34 -4 -8 -30 22 -22 26
-60 10 -90 -9 -17 -6 -19 31 -17 34 1 46 -4 65 -26 27 -32 34 -34 34 -9 0 27
42 62 75 62 l28 0 -21 23 c-24 25 -28 66 -11 99 11 20 9 21 -20 15 -37 -8 -78
9 -86 35 -8 24 -25 23 -25 -2z"/>
<path d="M6775 6270 c3 -5 8 -10 11 -10 2 0 4 5 4 10 0 6 -5 10 -11 10 -5 0
-7 -4 -4 -10z"/>
<path d="M9272 6263 c2 -10 10 -18 18 -18 8 0 16 8 18 18 2 12 -3 17 -18 17
-15 0 -20 -5 -18 -17z"/>
<path d="M1587 6247 c-11 -17 -24 -22 -61 -22 -38 0 -45 -3 -39 -15 12 -26 5
-84 -11 -96 -22 -15 -20 -21 9 -28 33 -8 65 -36 65 -57 0 -28 11 -28 35 -1 19
21 31 26 65 26 34 -1 40 1 34 15 -12 25 -6 72 11 91 20 22 19 30 -5 30 -30 0
-70 29 -70 51 0 28 -16 31 -33 6z"/>
<path d="M4000 6260 c0 -5 5 -10 10 -10 6 0 10 5 10 10 0 6 -4 10 -10 10 -5 0
-10 -4 -10 -10z"/>
<path d="M7450 6249 c-1 -32 -30 -66 -65 -75 l-27 -7 28 -22 c24 -19 29 -30
28 -64 l-1 -40 41 5 c33 5 45 2 60 -15 25 -28 36 -27 36 4 0 30 28 65 52 65
27 0 30 17 6 35 -18 12 -23 25 -23 60 0 40 -2 44 -20 38 -34 -11 -68 -4 -92
19 l-23 21 0 -24z"/>
<path d="M4835 6250 c3 -5 8 -10 11 -10 2 0 4 5 4 10 0 6 -5 10 -11 10 -5 0
-7 -4 -4 -10z"/>
<path d="M4965 6250 c-3 -5 -1 -10 4 -10 6 0 11 5 11 10 0 6 -2 10 -4 10 -3 0
-8 -4 -11 -10z"/>
<path d="M7370 6240 c0 -5 5 -10 10 -10 6 0 10 5 10 10 0 6 -4 10 -10 10 -5 0
-10 -4 -10 -10z"/>
<path d="M4888 6208 c-10 -10 -30 -18 -45 -18 -21 0 -24 -3 -15 -12 15 -15 15
-61 0 -76 -9 -9 -6 -12 15 -12 16 0 33 -9 44 -23 l18 -24 18 24 c11 14 29 23
45 23 20 0 23 3 14 12 -16 16 -15 61 1 77 10 10 9 12 -3 11 -27 -4 -39 0 -57
18 -17 18 -19 18 -35 0z"/>
<path d="M2890 6209 c0 -5 5 -7 10 -4 6 3 10 8 10 11 0 2 -4 4 -10 4 -5 0 -10
-5 -10 -11z"/>
<path d="M12145 6210 c3 -5 8 -10 11 -10 2 0 4 5 4 10 0 6 -5 10 -11 10 -5 0
-7 -4 -4 -10z"/>
<path d="M12450 6200 c0 -5 5 -10 10 -10 6 0 10 5 10 10 0 6 -4 10 -10 10 -5
0 -10 -4 -10 -10z"/>
<path d="M7635 6190 c-3 -5 -1 -10 4 -10 6 0 11 5 11 10 0 6 -2 10 -4 10 -3 0
-8 -4 -11 -10z"/>
<path d="M7025 6180 c-3 -5 -1 -10 4 -10 6 0 11 5 11 10 0 6 -2 10 -4 10 -3 0
-8 -4 -11 -10z"/>
<path d="M3190 6170 c0 -5 5 -10 10 -10 6 0 10 5 10 10 0 6 -4 10 -10 10 -5 0
-10 -4 -10 -10z"/>
<path d="M5485 6160 c-3 -5 -1 -10 4 -10 6 0 11 5 11 10 0 6 -2 10 -4 10 -3 0
-8 -4 -11 -10z"/>
<path d="M6175 6150 c3 -5 8 -10 11 -10 2 0 4 5 4 10 0 6 -5 10 -11 10 -5 0
-7 -4 -4 -10z"/>
<path d="M6720 6130 c0 -5 5 -10 10 -10 6 0 10 5 10 10 0 6 -4 10 -10 10 -5 0
-10 -4 -10 -10z"/>
<path d="M1730 6110 c0 -5 5 -10 10 -10 6 0 10 5 10 10 0 6 -4 10 -10 10 -5 0
-10 -4 -10 -10z"/>
<path d="M6217 6098 c-11 -5 -32 -8 -48 -6 -25 4 -29 1 -29 -18 0 -13 -10 -32
-22 -44 -18 -17 -19 -20 -5 -20 10 0 25 -15 34 -35 13 -27 19 -32 30 -24 7 7
26 9 42 6 27 -6 29 -3 35 27 4 19 14 37 24 41 15 6 14 8 -5 16 -13 4 -26 21
-30 38 -7 25 -11 28 -26 19z"/>
<path d="M6295 6100 c-3 -5 -1 -10 4 -10 6 0 11 5 11 10 0 6 -2 10 -4 10 -3 0
-8 -4 -11 -10z"/>
<path d="M7340 6090 c0 -5 5 -10 10 -10 6 0 10 5 10 10 0 6 -4 10 -10 10 -5 0
-10 -4 -10 -10z"/>
<path d="M12215 6081 c-3 -5 -1 -12 5 -16 5 -3 10 1 10 9 0 18 -6 21 -15 7z"/>
<path d="M2945 6070 c-3 -5 -1 -10 4 -10 6 0 11 5 11 10 0 6 -2 10 -4 10 -3 0
-8 -4 -11 -10z"/>
<path d="M12370 6070 c0 -5 5 -10 11 -10 5 0 7 5 4 10 -3 6 -8 10 -11 10 -2 0
-4 -4 -4 -10z"/>
<path d="M10380 6060 c0 -5 5 -10 10 -10 6 0 10 5 10 10 0 6 -4 10 -10 10 -5
0 -10 -4 -10 -10z"/>
<path d="M3100 6050 c0 -5 5 -10 11 -10 5 0 7 5 4 10 -3 6 -8 10 -11 10 -2 0
-4 -4 -4 -10z"/>
<path d="M6970 6029 c0 -5 5 -7 10 -4 6 3 10 8 10 11 0 2 -4 4 -10 4 -5 0 -10
-5 -10 -11z"/>
<path d="M10436 6021 c-14 -15 -28 -19 -59 -16 l-42 3 0 -44 c0 -36 -5 -49
-24 -63 l-24 -19 24 -7 c37 -11 69 -46 69 -73 l0 -25 25 23 c24 23 66 30 96
16 14 -6 16 -1 12 37 -5 39 -2 47 23 71 27 24 27 26 8 26 -29 0 -74 41 -74 68
0 27 -11 28 -34 3z"/>
<path d="M10530 6020 c0 -5 5 -10 10 -10 6 0 10 5 10 10 0 6 -4 10 -10 10 -5
0 -10 -4 -10 -10z"/>
<path d="M1630 5989 c0 -5 5 -7 10 -4 6 3 10 8 10 11 0 2 -4 4 -10 4 -5 0 -10
-5 -10 -11z"/>
<path d="M7460 5990 c0 -5 5 -10 11 -10 5 0 7 5 4 10 -3 6 -8 10 -11 10 -2 0
-4 -4 -4 -10z"/>
<path d="M4990 5970 c0 -5 5 -10 10 -10 6 0 10 5 10 10 0 6 -4 10 -10 10 -5 0
-10 -4 -10 -10z"/>
<path d="M6305 5970 c3 -5 8 -10 11 -10 2 0 4 5 4 10 0 6 -5 10 -11 10 -5 0
-7 -4 -4 -10z"/>
<path d="M10270 5960 c0 -5 5 -10 11 -10 5 0 7 5 4 10 -3 6 -8 10 -11 10 -2 0
-4 -4 -4 -10z"/>
<path d="M11465 5960 c-3 -5 -1 -10 4 -10 6 0 11 5 11 10 0 6 -2 10 -4 10 -3
0 -8 -4 -11 -10z"/>
<path d="M6085 5950 c-3 -5 -1 -10 4 -10 6 0 11 5 11 10 0 6 -2 10 -4 10 -3 0
-8 -4 -11 -10z"/>
<path d="M11390 5918 c0 -27 -45 -68 -73 -68 -20 0 -20 0 1 -22 27 -30 37 -71
22 -98 -11 -20 -10 -21 12 -14 37 13 68 8 92 -15 24 -22 36 -19 36 10 0 22 46
59 73 59 18 0 17 2 -8 26 -24 23 -27 30 -22 69 6 43 6 44 -16 36 -32 -12 -76
-2 -88 20 -13 26 -29 24 -29 -3z"/>
<path d="M11310 5920 c0 -5 5 -10 10 -10 6 0 10 5 10 10 0 6 -4 10 -10 10 -5
0 -10 -4 -10 -10z"/>
<path d="M6030 5909 c0 -5 5 -7 10 -4 6 3 10 8 10 11 0 2 -4 4 -10 4 -5 0 -10
-5 -10 -11z"/>
<path d="M3740 5890 c0 -5 5 -10 10 -10 6 0 10 5 10 10 0 6 -4 10 -10 10 -5 0
-10 -4 -10 -10z"/>
<path d="M8920 5879 c0 -5 5 -7 10 -4 6 3 10 8 10 11 0 2 -4 4 -10 4 -5 0 -10
-5 -10 -11z"/>
<path d="M2275 5870 c3 -5 8 -10 11 -10 2 0 4 5 4 10 0 6 -5 10 -11 10 -5 0
-7 -4 -4 -10z"/>
<path d="M2430 5870 c0 -5 5 -10 10 -10 6 0 10 5 10 10 0 6 -4 10 -10 10 -5 0
-10 -4 -10 -10z"/>
<path d="M10560 5870 c0 -5 5 -10 10 -10 6 0 10 5 10 10 0 6 -4 10 -10 10 -5
0 -10 -4 -10 -10z"/>
<path d="M2350 5860 c0 -23 -41 -50 -76 -50 -36 0 -36 0 -21 -24 18 -27 17
-60 -1 -93 -12 -21 -11 -23 15 -23 30 0 64 -23 81 -55 10 -19 11 -19 22 6 13
29 61 53 90 44 23 -7 27 7 5 25 -8 7 -15 27 -15 45 0 18 7 38 15 45 23 19 18
33 -10 26 -29 -7 -71 16 -80 45 -7 20 -25 27 -25 9z"/>
<path d="M3665 5848 c-11 -35 -34 -56 -68 -64 -30 -6 -30 -7 -10 -23 26 -20
36 -62 23 -96 -9 -24 -8 -26 7 -19 32 14 73 7 98 -16 l24 -23 6 26 c8 32 31
52 70 61 29 7 29 8 9 24 -27 21 -37 63 -24 97 9 24 8 26 -7 19 -32 -14 -73 -7
-97 15 l-24 23 -7 -24z"/>
<path d="M3590 5850 c0 -5 5 -10 10 -10 6 0 10 5 10 10 0 6 -4 10 -10 10 -5 0
-10 -4 -10 -10z"/>
<path d="M8976 5842 c-19 -21 -59 -24 -100 -7 -17 7 -18 5 -13 -16 9 -32 -12
-75 -43 -90 l-25 -11 25 -10 c37 -14 60 -44 60 -79 l0 -32 23 21 c24 23 81 30
92 12 12 -20 25 -10 23 18 -2 34 16 68 44 83 21 11 21 12 -8 24 -30 13 -51 44
-56 84 l-3 23 -19 -20z"/>
<path d="M11575 5850 c-3 -5 -1 -10 4 -10 6 0 11 5 11 10 0 6 -2 10 -4 10 -3
0 -8 -4 -11 -10z"/>
<path d="M9060 5820 c0 -5 5 -10 10 -10 6 0 10 5 10 10 0 6 -4 10 -10 10 -5 0
-10 -4 -10 -10z"/>
<path d="M9617 5802 c-9 -8 -26 -14 -39 -14 -21 0 -24 -6 -25 -35 -1 -18 -7
-40 -13 -48 -10 -12 -9 -15 8 -15 11 0 29 -11 39 -24 17 -21 21 -22 38 -10 10
8 28 14 40 14 17 0 21 6 22 33 1 17 3 37 4 42 2 6 -11 24 -28 41 -28 27 -33
29 -46 16z"/>
<path d="M10305 5810 c-3 -5 -1 -10 4 -10 6 0 11 5 11 10 0 6 -2 10 -4 10 -3
0 -8 -4 -11 -10z"/>
<path d="M3845 5780 c-3 -5 1 -10 10 -10 9 0 13 5 10 10 -3 6 -8 10 -10 10 -2
0 -7 -4 -10 -10z"/>
<path d="M5635 5770 c-5 -8 -20 -10 -41 -7 -29 5 -34 3 -34 -14 0 -10 -9 -28
-20 -39 -24 -24 -25 -30 -6 -30 8 0 20 -12 27 -28 10 -24 17 -27 55 -27 34 0
44 4 44 16 0 9 9 28 20 42 15 19 17 26 7 30 -8 3 -21 19 -29 37 -10 21 -18 28
-23 20z"/>
<path d="M11275 5770 c-3 -5 -1 -10 4 -10 6 0 11 5 11 10 0 6 -2 10 -4 10 -3
0 -8 -4 -11 -10z"/>
<path d="M9420 5759 c0 -5 5 -7 10 -4 6 3 10 8 10 11 0 2 -4 4 -10 4 -5 0 -10
-5 -10 -11z"/>
<path d="M10450 5760 c0 -5 5 -10 10 -10 6 0 10 5 10 10 0 6 -4 10 -10 10 -5
0 -10 -4 -10 -10z"/>
<path d="M2200 5740 c0 -5 5 -10 11 -10 5 0 7 5 4 10 -3 6 -8 10 -11 10 -2 0
-4 -4 -4 -10z"/>
<path d="M2505 5740 c-3 -5 -1 -10 4 -10 6 0 11 5 11 10 0 6 -2 10 -4 10 -3 0
-8 -4 -11 -10z"/>
<path d="M190 5710 c0 -5 5 -10 10 -10 6 0 10 5 10 10 0 6 -4 10 -10 10 -5 0
-10 -4 -10 -10z"/>
<path d="M1395 5700 c3 -5 8 -10 11 -10 2 0 4 5 4 10 0 6 -5 10 -11 10 -5 0
-7 -4 -4 -10z"/>
<path d="M3545 5700 c4 -6 11 -8 16 -5 14 9 11 15 -7 15 -8 0 -12 -5 -9 -10z"/>
<path d="M11530 5700 c0 -5 5 -10 10 -10 6 0 10 5 10 10 0 6 -4 10 -10 10 -5
0 -10 -4 -10 -10z"/>
<path d="M253 5672 c-16 -22 -27 -27 -62 -26 -35 1 -41 -1 -35 -15 14 -34 11
-72 -8 -96 l-19 -25 29 0 c31 0 72 -35 72 -63 0 -23 17 -22 25 2 8 25 55 44
90 35 25 -6 26 -5 16 14 -17 33 -13 74 11 99 l21 23 -27 0 c-35 0 -76 27 -76
51 0 29 -15 30 -37 1z"/>
<path d="M345 5690 c-3 -5 -1 -10 4 -10 6 0 11 5 11 10 0 6 -2 10 -4 10 -3 0
-8 -4 -11 -10z"/>
<path d="M797 5694 c-14 -14 -7 -35 11 -32 9 2 17 10 17 17 0 16 -18 25 -28
15z"/>
<path d="M4337 5694 c-14 -14 -7 -35 11 -32 9 2 17 10 17 17 0 16 -18 25 -28
15z"/>
<path d="M1446 5659 c-9 -11 -27 -19 -41 -19 -16 0 -24 -4 -20 -11 11 -17 13
-59 4 -65 -16 -10 -9 -24 11 -24 11 0 28 -8 38 -18 18 -18 19 -18 42 0 12 10
30 18 39 18 12 0 16 10 16 45 0 26 -5 45 -11 45 -6 0 -23 11 -37 24 -24 22
-25 23 -41 5z"/>
<path d="M4925 5670 c3 -5 8 -10 11 -10 2 0 4 5 4 10 0 6 -5 10 -11 10 -5 0
-7 -4 -4 -10z"/>
<path d="M12515 5658 c-6 -13 -19 -27 -30 -33 -19 -9 -19 -13 -8 -35 7 -14 11
-33 9 -42 -3 -14 2 -18 27 -18 17 0 39 -7 49 -17 17 -15 18 -15 18 1 0 22 23
46 44 46 19 0 22 16 4 22 -6 2 -12 20 -12 39 -1 33 -3 35 -35 35 -19 0 -36 5
-39 12 -6 18 -16 14 -27 -10z"/>
<path d="M8071 5661 c-7 -5 -26 -8 -42 -7 -21 2 -29 -3 -33 -20 -4 -13 -13
-29 -21 -38 -14 -13 -13 -18 10 -40 14 -14 25 -29 25 -33 0 -5 20 -8 45 -8 35
0 45 4 45 16 0 9 8 27 19 40 18 23 18 23 -5 41 -12 10 -24 27 -26 38 -2 14 -7
17 -17 11z"/>
<path d="M11385 5660 c-3 -5 -1 -10 4 -10 6 0 11 5 11 10 0 6 -2 10 -4 10 -3
0 -8 -4 -11 -10z"/>
<path d="M4984 5629 c-15 -17 -27 -20 -60 -16 l-41 4 1 -43 c1 -32 -5 -49 -23
-68 l-24 -26 25 0 c27 0 68 -37 68 -63 0 -24 18 -30 29 -9 12 23 65 36 90 23
16 -9 17 -4 17 40 -1 42 3 53 24 69 l25 18 -30 8 c-40 9 -65 32 -65 61 0 29
-11 29 -36 2z"/>
<path d="M8810 5639 c0 -5 5 -7 10 -4 6 3 10 8 10 11 0 2 -4 4 -10 4 -5 0 -10
-5 -10 -11z"/>
<path d="M3800 5630 c0 -5 5 -10 10 -10 6 0 10 5 10 10 0 6 -4 10 -10 10 -5 0
-10 -4 -10 -10z"/>
<path d="M5075 5630 c-3 -5 -1 -10 4 -10 6 0 11 5 11 10 0 6 -2 10 -4 10 -3 0
-8 -4 -11 -10z"/>
<path d="M3114 5615 c-6 -15 -41 -30 -61 -27 -15 3 -18 -14 -4 -22 9 -6 7 -48
-4 -65 -3 -7 2 -11 14 -11 12 0 30 -9 41 -20 l20 -20 22 20 c12 11 29 20 37
20 12 0 16 11 16 45 0 26 -5 45 -11 45 -6 0 -23 11 -38 25 -21 20 -28 22 -32
10z"/>
<path d="M2276 5611 c-4 -7 -5 -15 -2 -18 9 -9 19 4 14 18 -4 11 -6 11 -12 0z"/>
<path d="M5775 5610 c3 -5 8 -10 11 -10 2 0 4 5 4 10 0 6 -5 10 -11 10 -5 0
-7 -4 -4 -10z"/>
<path d="M95 5590 c-3 -5 1 -10 10 -10 9 0 13 5 10 10 -3 6 -8 10 -10 10 -2 0
-7 -4 -10 -10z"/>
<path d="M3650 5590 c0 -5 5 -10 10 -10 6 0 10 5 10 10 0 6 -4 10 -10 10 -5 0
-10 -4 -10 -10z"/>
<path d="M8950 5580 c0 -5 5 -10 11 -10 5 0 7 5 4 10 -3 6 -8 10 -11 10 -2 0
-4 -4 -4 -10z"/>
<path d="M5610 5570 c0 -5 5 -10 11 -10 5 0 7 5 4 10 -3 6 -8 10 -11 10 -2 0
-4 -4 -4 -10z"/>
<path d="M4815 5560 c4 -6 11 -8 16 -5 14 9 11 15 -7 15 -8 0 -12 -5 -9 -10z"/>
<path d="M6525 5560 c3 -5 8 -10 11 -10 2 0 4 5 4 10 0 6 -5 10 -11 10 -5 0
-7 -4 -4 -10z"/>
<path d="M6590 5536 c-13 -26 -37 -36 -83 -36 -26 0 -27 -1 -13 -22 16 -26 11
-71 -10 -89 -22 -18 -16 -29 16 -29 32 0 62 -22 73 -53 6 -17 10 -16 37 13 26
28 35 32 65 27 38 -6 42 -2 21 26 -16 20 -10 65 12 90 14 15 13 17 -7 17 -28
0 -81 36 -81 55 0 25 -17 25 -30 1z"/>
<path d="M9680 5550 c0 -5 5 -10 11 -10 5 0 7 5 4 10 -3 6 -8 10 -11 10 -2 0
-4 -4 -4 -10z"/>
<path d="M12030 5540 c0 -15 5 -20 18 -18 9 2 17 10 17 18 0 8 -8 16 -17 18
-13 2 -18 -3 -18 -18z"/>
<path d="M405 5540 c3 -5 8 -10 11 -10 2 0 4 5 4 10 0 6 -5 10 -11 10 -5 0 -7
-4 -4 -10z"/>
<path d="M2920 5540 c0 -5 5 -10 11 -10 5 0 7 5 4 10 -3 6 -8 10 -11 10 -2 0
-4 -4 -4 -10z"/>
<path d="M12635 5500 c3 -5 8 -10 11 -10 2 0 4 5 4 10 0 6 -5 10 -11 10 -5 0
-7 -4 -4 -10z"/>
<path d="M5115 5480 c3 -5 8 -10 11 -10 2 0 4 5 4 10 0 6 -5 10 -11 10 -5 0
-7 -4 -4 -10z"/>
<path d="M8710 5480 c0 -5 5 -10 10 -10 6 0 10 5 10 10 0 6 -4 10 -10 10 -5 0
-10 -4 -10 -10z"/>
<path d="M7337 5464 c-14 -14 -7 -35 11 -32 9 2 17 10 17 17 0 16 -18 25 -28
15z"/>
<path d="M8050 5460 c0 -5 5 -10 11 -10 5 0 7 5 4 10 -3 6 -8 10 -11 10 -2 0
-4 -4 -4 -10z"/>
<path d="M150 5440 c0 -5 5 -10 10 -10 6 0 10 5 10 10 0 6 -4 10 -10 10 -5 0
-10 -4 -10 -10z"/>
<path d="M6435 5440 c-3 -5 -1 -10 4 -10 6 0 11 5 11 10 0 6 -2 10 -4 10 -3 0
-8 -4 -11 -10z"/>
<path d="M310 5419 c0 -5 5 -7 10 -4 6 3 10 8 10 11 0 2 -4 4 -10 4 -5 0 -10
-5 -10 -11z"/>
<path d="M4855 5410 c3 -5 8 -10 11 -10 2 0 4 5 4 10 0 6 -5 10 -11 10 -5 0
-7 -4 -4 -10z"/>
<path d="M6740 5410 c0 -5 5 -10 10 -10 6 0 10 5 10 10 0 6 -4 10 -10 10 -5 0
-10 -4 -10 -10z"/>
<path d="M10140 5400 c0 -10 -10 -27 -23 -36 -22 -17 -22 -19 -5 -36 10 -10
18 -28 18 -41 0 -20 4 -23 30 -19 17 2 36 0 43 -6 9 -8 16 -3 26 19 7 17 23
34 35 39 19 7 19 9 4 15 -10 4 -20 22 -24 40 -6 31 -8 33 -39 28 -19 -3 -35
-1 -39 6 -11 18 -26 13 -26 -9z"/>
<path d="M10765 5398 c-8 -17 -30 -35 -53 -44 -1 -1 4 -14 13 -30 8 -16 12
-37 9 -46 -3 -12 0 -15 13 -12 10 2 29 -2 43 -9 23 -11 27 -10 48 15 13 15 31
28 39 28 14 0 14 2 0 18 -10 10 -17 31 -17 45 0 23 -4 27 -27 27 -14 0 -34 7
-43 15 -14 12 -17 12 -25 -7z"/>
<path d="M8596 5379 c-11 -10 -27 -19 -35 -19 -12 0 -16 -11 -16 -45 0 -26 5
-45 11 -45 6 0 23 -11 38 -25 21 -20 28 -22 32 -10 6 16 41 30 62 26 10 -1 11
3 5 16 -10 20 -10 54 1 72 5 7 -1 11 -13 11 -12 0 -30 9 -41 20 -24 24 -20 24
-44 -1z"/>
<path d="M10295 5390 c-3 -5 -1 -10 4 -10 6 0 11 5 11 10 0 6 -2 10 -4 10 -3
0 -8 -4 -11 -10z"/>
<path d="M5011 5374 c0 -11 3 -14 6 -6 3 7 2 16 -1 19 -3 4 -6 -2 -5 -13z"/>
<path d="M8740 5310 c0 -5 5 -10 10 -10 6 0 10 5 10 10 0 6 -4 10 -10 10 -5 0
-10 -4 -10 -10z"/>
<path d="M8805 5310 c-3 -5 -1 -10 4 -10 6 0 11 5 11 10 0 6 -2 10 -4 10 -3 0
-8 -4 -11 -10z"/>
<path d="M6500 5300 c0 -5 5 -10 10 -10 6 0 10 5 10 10 0 6 -4 10 -10 10 -5 0
-10 -4 -10 -10z"/>
<path d="M6655 5280 c3 -5 8 -10 11 -10 2 0 4 5 4 10 0 6 -5 10 -11 10 -5 0
-7 -4 -4 -10z"/>
<path d="M10600 5280 c0 -5 5 -10 10 -10 6 0 10 5 10 10 0 6 -4 10 -10 10 -5
0 -10 -4 -10 -10z"/>
<path d="M2570 5261 c0 -12 -10 -32 -23 -45 l-23 -23 23 -17 c13 -9 23 -25 23
-34 0 -14 9 -17 49 -17 30 0 47 4 44 11 -2 6 7 22 20 36 l24 25 -24 23 c-13
12 -23 28 -23 36 0 10 -8 12 -30 8 -18 -4 -36 -1 -45 6 -13 10 -15 9 -15 -9z"/>
<path d="M5860 5269 c0 -5 5 -7 10 -4 6 3 10 8 10 11 0 2 -4 4 -10 4 -5 0 -10
-5 -10 -11z"/>
<path d="M2720 5259 c0 -5 5 -7 10 -4 6 3 10 8 10 11 0 2 -4 4 -10 4 -5 0 -10
-5 -10 -11z"/>
<path d="M10280 5260 c0 -5 5 -10 11 -10 5 0 7 5 4 10 -3 6 -8 10 -11 10 -2 0
-4 -4 -4 -10z"/>
<path d="M5705 5250 c-3 -5 -1 -10 4 -10 6 0 11 5 11 10 0 6 -2 10 -4 10 -3 0
-8 -4 -11 -10z"/>
<path d="M5780 5242 c0 -27 -42 -62 -75 -62 l-28 0 22 -23 c22 -24 30 -69 17
-98 -6 -14 0 -16 34 -15 35 1 46 -4 65 -28 l23 -29 7 24 c11 37 46 69 73 69
l25 0 -22 24 c-23 24 -25 55 -7 96 5 12 -3 15 -40 15 -35 0 -50 5 -64 23 -22
27 -30 28 -30 4z"/>
<path d="M9660 5229 c0 -5 5 -7 10 -4 6 3 10 8 10 11 0 2 -4 4 -10 4 -5 0 -10
-5 -10 -11z"/>
<path d="M11395 5230 c-5 -8 -21 -10 -44 -7 -34 4 -36 3 -37 -26 -1 -17 -9
-36 -18 -43 -16 -11 -16 -13 3 -19 11 -3 26 -19 33 -35 9 -22 16 -26 25 -18 7
6 26 8 43 6 25 -4 30 -1 30 17 0 12 7 30 15 41 18 24 19 34 1 34 -7 0 -20 14
-29 31 -10 21 -17 27 -22 19z"/>
<path d="M9505 5220 c3 -5 8 -10 11 -10 2 0 4 5 4 10 0 6 -5 10 -11 10 -5 0
-7 -4 -4 -10z"/>
<path d="M9580 5215 c0 -25 -38 -55 -70 -55 -33 0 -38 -11 -15 -30 17 -14 20
-75 5 -85 -18 -11 -10 -25 14 -25 39 0 74 -17 81 -39 7 -24 25 -28 25 -6 0 26
42 55 79 55 l34 0 -22 24 c-23 25 -25 55 -6 99 6 14 2 17 -18 17 -40 0 -75 17
-82 39 -7 24 -25 28 -25 6z"/>
<path d="M10335 5220 c3 -5 8 -10 11 -10 2 0 4 5 4 10 0 6 -5 10 -11 10 -5 0
-7 -4 -4 -10z"/>
<path d="M8670 5200 c0 -5 5 -10 10 -10 6 0 10 5 10 10 0 6 -4 10 -10 10 -5 0
-10 -4 -10 -10z"/>
<path d="M10925 5190 c3 -5 8 -10 11 -10 2 0 4 5 4 10 0 6 -5 10 -11 10 -5 0
-7 -4 -4 -10z"/>
<path d="M5955 5160 c-3 -5 1 -10 10 -10 9 0 13 5 10 10 -3 6 -8 10 -10 10 -2
0 -7 -4 -10 -10z"/>
<path d="M3626 5145 c-3 -9 -19 -18 -35 -21 -27 -6 -29 -9 -20 -26 6 -11 8
-33 5 -49 -4 -24 -2 -29 13 -29 10 0 29 -8 42 -19 23 -18 23 -18 42 5 10 13
28 24 39 24 17 0 18 2 8 15 -8 9 -10 29 -7 50 3 20 2 33 -3 30 -11 -7 -60 15
-60 27 0 14 -18 9 -24 -7z"/>
<path d="M1415 5140 c3 -5 8 -10 11 -10 2 0 4 5 4 10 0 6 -5 10 -11 10 -5 0
-7 -4 -4 -10z"/>
<path d="M2440 5100 c0 -5 5 -10 10 -10 6 0 10 5 10 10 0 6 -4 10 -10 10 -5 0
-10 -4 -10 -10z"/>
<path d="M5650 5100 c0 -5 5 -10 10 -10 6 0 10 5 10 10 0 6 -4 10 -10 10 -5 0
-10 -4 -10 -10z"/>
<path d="M4330 5074 c0 -29 -41 -74 -68 -74 -13 -1 -9 -7 13 -25 25 -21 30
-32 30 -69 l0 -44 26 14 c29 14 65 9 92 -14 15 -14 17 -13 17 2 0 29 33 76 57
82 13 4 23 7 23 9 0 2 -14 17 -30 35 -26 28 -30 37 -24 68 l7 36 -25 -16 c-27
-18 -71 -14 -89 8 -18 22 -29 17 -29 -12z"/>
<path d="M9435 5080 c4 -6 11 -8 16 -5 14 9 11 15 -7 15 -8 0 -12 -5 -9 -10z"/>
<path d="M4255 5070 c-3 -5 -1 -10 4 -10 6 0 11 5 11 10 0 6 -2 10 -4 10 -3 0
-8 -4 -11 -10z"/>
<path d="M1488 5038 c-10 -10 -28 -18 -41 -18 -20 0 -23 -4 -19 -30 2 -17 0
-36 -6 -43 -8 -9 -3 -16 19 -26 17 -7 34 -23 39 -35 7 -19 9 -19 15 -4 4 10
22 20 41 24 30 6 33 8 27 35 -3 17 0 35 7 44 10 12 10 15 0 15 -6 0 -24 13
-38 28 -26 27 -28 27 -44 10z"/>
<path d="M5900 5010 c0 -5 5 -10 10 -10 6 0 10 5 10 10 0 6 -4 10 -10 10 -5 0
-10 -4 -10 -10z"/>
<path d="M7260 5000 c0 -5 5 -10 10 -10 6 0 10 5 10 10 0 6 -4 10 -10 10 -5 0
-10 -4 -10 -10z"/>
<path d="M1360 4980 c0 -5 5 -10 10 -10 6 0 10 5 10 10 0 6 -4 10 -10 10 -5 0
-10 -4 -10 -10z"/>
<path d="M5750 4980 c0 -5 5 -10 10 -10 6 0 10 5 10 10 0 6 -4 10 -10 10 -5 0
-10 -4 -10 -10z"/>
<path d="M2104 4969 c-10 -17 13 -36 27 -22 12 12 4 33 -11 33 -5 0 -12 -5
-16 -11z"/>
<path d="M9680 4970 c0 -5 5 -10 11 -10 5 0 7 5 4 10 -3 6 -8 10 -11 10 -2 0
-4 -4 -4 -10z"/>
<path d="M12255 4971 c-8 -15 3 -31 21 -31 9 0 14 7 12 17 -4 20 -24 28 -33
14z"/>
<path d="M5132 4953 c2 -10 10 -18 18 -18 8 0 16 8 18 18 2 12 -3 17 -18 17
-15 0 -20 -5 -18 -17z"/>
<path d="M7319 4954 c-13 -16 -65 -16 -99 0 -13 5 -15 -2 -15 -35 0 -39 -11
-55 -49 -74 -7 -3 -7 -7 2 -11 35 -16 62 -53 62 -84 0 -32 1 -33 19 -16 26 23
71 28 99 10 21 -14 22 -13 23 18 1 46 11 68 40 83 l24 13 -26 10 c-33 13 -62
57 -54 82 8 24 -7 26 -26 4z"/>
<path d="M9525 4960 c-3 -5 -1 -10 4 -10 6 0 11 5 11 10 0 6 -2 10 -4 10 -3 0
-8 -4 -11 -10z"/>
<path d="M7135 4920 c-3 -5 -1 -10 4 -10 6 0 11 5 11 10 0 6 -2 10 -4 10 -3 0
-8 -4 -11 -10z"/>
<path d="M306 4912 c-5 -9 -21 -12 -42 -10 -27 3 -34 0 -34 -13 0 -9 -8 -27
-19 -40 -18 -23 -18 -23 5 -42 13 -10 24 -28 24 -39 0 -17 2 -18 15 -8 9 8 29
10 49 7 29 -5 33 -3 29 13 -3 10 4 27 17 40 l21 21 -25 20 c-13 11 -26 29 -28
42 -2 16 -5 19 -12 9z"/>
<path d="M4235 4910 c4 -6 11 -8 16 -5 14 9 11 15 -7 15 -8 0 -12 -5 -9 -10z"/>
<path d="M3555 4900 c-3 -5 -1 -10 4 -10 6 0 11 5 11 10 0 6 -2 10 -4 10 -3 0
-8 -4 -11 -10z"/>
<path d="M4505 4880 c3 -5 8 -10 11 -10 2 0 4 5 4 10 0 6 -5 10 -11 10 -5 0
-7 -4 -4 -10z"/>
<path d="M812 4833 c-28 -29 -39 -33 -63 -28 -32 7 -36 0 -15 -28 16 -20 10
-65 -12 -89 -14 -17 -13 -18 15 -18 29 0 73 -31 87 -61 4 -9 8 -10 11 -3 16
33 35 46 73 51 36 5 40 8 32 24 -15 27 -12 67 6 94 16 25 16 25 -17 25 -38 1
-59 14 -74 46 -10 20 -11 20 -43 -13z"/>
<path d="M910 4859 c0 -5 5 -7 10 -4 6 3 10 8 10 11 0 2 -4 4 -10 4 -5 0 -10
-5 -10 -11z"/>
<path d="M6730 4830 c0 -5 5 -10 11 -10 5 0 7 5 4 10 -3 6 -8 10 -11 10 -2 0
-4 -4 -4 -10z"/>
<path d="M4360 4820 c0 -5 5 -10 10 -10 6 0 10 5 10 10 0 6 -4 10 -10 10 -5 0
-10 -4 -10 -10z"/>
<path d="M1375 4810 c-3 -5 -1 -10 4 -10 6 0 11 5 11 10 0 6 -2 10 -4 10 -3 0
-8 -4 -11 -10z"/>
<path d="M390 4780 c0 -5 5 -10 11 -10 5 0 7 5 4 10 -3 6 -8 10 -11 10 -2 0
-4 -4 -4 -10z"/>
<path d="M7415 4780 c3 -5 8 -10 11 -10 2 0 4 5 4 10 0 6 -5 10 -11 10 -5 0
-7 -4 -4 -10z"/>
<path d="M8417 4774 c-14 -15 -6 -34 14 -34 14 0 19 5 17 17 -3 18 -20 27 -31
17z"/>
<path d="M6625 4758 c-4 -10 -23 -20 -42 -24 -23 -4 -32 -11 -29 -20 3 -7 1
-27 -4 -43 -5 -20 -5 -31 1 -31 6 0 21 -11 35 -25 23 -23 27 -24 47 -10 12 8
30 15 40 15 13 0 17 5 13 18 -3 9 0 29 8 43 12 24 11 26 -16 38 -16 8 -33 23
-38 35 -7 19 -9 19 -15 4z"/>
<path d="M7150 4759 c0 -5 5 -7 10 -4 6 3 10 8 10 11 0 2 -4 4 -10 4 -5 0 -10
-5 -10 -11z"/>
<path d="M9122 4743 c2 -10 10 -18 18 -18 8 0 16 8 18 18 2 12 -3 17 -18 17
-15 0 -20 -5 -18 -17z"/>
<path d="M670 4740 c0 -5 5 -10 10 -10 6 0 10 5 10 10 0 6 -4 10 -10 10 -5 0
-10 -4 -10 -10z"/>
<path d="M11730 4739 c0 -5 5 -7 10 -4 6 3 10 8 10 11 0 2 -4 4 -10 4 -5 0
-10 -5 -10 -11z"/>
<path d="M3000 4710 c0 -15 5 -20 18 -18 9 2 17 10 17 18 0 8 -8 16 -17 18
-13 2 -18 -3 -18 -18z"/>
<path d="M6420 4700 c0 -5 5 -10 11 -10 5 0 7 5 4 10 -3 6 -8 10 -11 10 -2 0
-4 -4 -4 -10z"/>
<path d="M7291 4694 c0 -11 3 -14 6 -6 3 7 2 16 -1 19 -3 4 -6 -2 -5 -13z"/>
<path d="M11666 4682 c6 -28 -23 -70 -57 -86 -12 -5 -12 -7 0 -12 31 -14 51
-45 51 -79 0 -37 10 -44 30 -21 13 16 66 14 83 -3 18 -18 27 -12 27 17 0 30
25 66 53 75 20 7 14 27 -7 27 -24 0 -48 48 -40 83 l6 31 -25 -17 c-32 -21 -80
-22 -97 -2 -19 23 -30 18 -24 -13z"/>
<path d="M10197 4684 c-14 -15 -6 -34 14 -34 14 0 19 5 17 17 -3 18 -20 27
-31 17z"/>
<path d="M11590 4670 c0 -5 5 -10 10 -10 6 0 10 5 10 10 0 6 -4 10 -10 10 -5
0 -10 -4 -10 -10z"/>
<path d="M11860 4660 c0 -5 5 -10 10 -10 6 0 10 5 10 10 0 6 -4 10 -10 10 -5
0 -10 -4 -10 -10z"/>
<path d="M740 4600 c0 -5 5 -10 10 -10 6 0 10 5 10 10 0 6 -4 10 -10 10 -5 0
-10 -4 -10 -10z"/>
<path d="M900 4600 c0 -5 5 -10 11 -10 5 0 7 5 4 10 -3 6 -8 10 -11 10 -2 0
-4 -4 -4 -10z"/>
<path d="M7795 4601 c-8 -15 3 -31 21 -31 9 0 14 7 12 17 -4 20 -24 28 -33 14z"/>
<path d="M10915 4580 c-8 -14 3 -30 21 -30 8 0 14 9 14 20 0 21 -24 28 -35 10z"/>
<path d="M6024 4569 c-8 -14 11 -33 25 -25 6 4 11 14 11 22 0 16 -26 19 -36 3z"/>
<path d="M12360 4530 c0 -5 5 -10 11 -10 5 0 7 5 4 10 -3 6 -8 10 -11 10 -2 0
-4 -4 -4 -10z"/>
<path d="M11590 4509 c0 -5 5 -7 10 -4 6 3 10 8 10 11 0 2 -4 4 -10 4 -5 0
-10 -5 -10 -11z"/>
<path d="M12490 4490 c-1 -20 -24 -50 -40 -50 -7 0 -1 -12 14 -26 14 -15 26
-36 26 -47 0 -15 3 -17 13 -8 13 10 47 8 67 -4 6 -3 10 2 10 12 1 23 23 53 41
53 11 1 11 3 -2 13 -20 15 -41 55 -35 65 2 4 -18 7 -45 7 -37 0 -49 -4 -49
-15z"/>
<path d="M4596 4455 c-3 -9 -19 -18 -36 -21 -30 -6 -36 -14 -23 -28 11 -10 12
-50 1 -62 -6 -8 2 -14 26 -18 19 -4 37 -13 40 -21 4 -12 11 -10 32 10 15 14
32 25 38 25 6 0 11 19 11 45 0 36 -3 45 -17 45 -10 0 -27 9 -38 20 -24 24 -26
24 -34 5z"/>
<path d="M3720 4449 c0 -5 5 -7 10 -4 6 3 10 8 10 11 0 2 -4 4 -10 4 -5 0 -10
-5 -10 -11z"/>
<path d="M11720 4430 c0 -5 5 -10 10 -10 6 0 10 5 10 10 0 6 -4 10 -10 10 -5
0 -10 -4 -10 -10z"/>
<path d="M3550 4420 c0 -5 5 -10 10 -10 6 0 10 5 10 10 0 6 -4 10 -10 10 -5 0
-10 -4 -10 -10z"/>
<path d="M2031 4388 c-6 -9 -21 -20 -33 -23 -20 -5 -23 -12 -23 -54 0 -30 4
-47 11 -44 6 2 22 -7 36 -20 l25 -24 23 24 c12 13 32 23 43 23 16 0 18 3 9 12
-7 7 -12 21 -12 33 0 12 5 26 12 33 9 9 7 12 -10 12 -13 0 -33 10 -46 23 -22
22 -24 22 -35 5z"/>
<path d="M3680 4378 c0 -10 -9 -27 -20 -38 l-20 -20 20 -20 c11 -11 20 -29 20
-40 0 -17 3 -19 19 -11 10 6 20 9 22 7 2 -2 16 -6 31 -10 21 -5 26 -3 22 7 -2
7 6 25 20 40 l25 27 -24 26 c-13 14 -22 31 -19 37 3 8 -11 12 -46 12 -41 0
-50 -3 -50 -17z"/>
<path d="M7175 4390 c-3 -5 -1 -10 4 -10 6 0 11 5 11 10 0 6 -2 10 -4 10 -3 0
-8 -4 -11 -10z"/>
<path d="M7095 4358 c-11 -33 -40 -58 -70 -58 -29 0 -31 -7 -10 -30 17 -19 22
-66 11 -92 -7 -15 -3 -18 28 -18 26 0 44 -7 62 -25 29 -29 34 -30 34 -10 0 22
52 65 79 65 23 0 23 1 7 19 -18 20 -25 75 -12 103 7 15 3 16 -28 11 -31 -5
-40 -1 -65 26 -29 31 -30 31 -36 9z"/>
<path d="M7025 4360 c3 -5 8 -10 11 -10 2 0 4 5 4 10 0 6 -5 10 -11 10 -5 0
-7 -4 -4 -10z"/>
<path d="M5303 4344 c-7 -18 17 -38 31 -24 11 11 1 40 -14 40 -6 0 -13 -7 -17
-16z"/>
<path d="M12695 4330 c3 -5 8 -10 11 -10 2 0 4 5 4 10 0 6 -5 10 -11 10 -5 0
-7 -4 -4 -10z"/>
<path d="M1910 4309 c0 -5 5 -7 10 -4 6 3 10 8 10 11 0 2 -4 4 -10 4 -5 0 -10
-5 -10 -11z"/>
<path d="M9670 4300 c0 -15 5 -20 18 -18 9 2 17 10 17 18 0 8 -8 16 -17 18
-13 2 -18 -3 -18 -18z"/>
<path d="M4675 4270 c3 -5 8 -10 11 -10 2 0 4 5 4 10 0 6 -5 10 -11 10 -5 0
-7 -4 -4 -10z"/>
<path d="M7270 4259 c0 -5 5 -7 10 -4 6 3 10 8 10 11 0 2 -4 4 -10 4 -5 0 -10
-5 -10 -11z"/>
<path d="M2785 4230 c-3 -5 -1 -10 4 -10 6 0 11 5 11 10 0 6 -2 10 -4 10 -3 0
-8 -4 -11 -10z"/>
<path d="M6960 4220 c0 -5 5 -10 10 -10 6 0 10 5 10 10 0 6 -4 10 -10 10 -5 0
-10 -4 -10 -10z"/>
<path d="M8600 4220 c0 -5 5 -10 11 -10 5 0 7 5 4 10 -3 6 -8 10 -11 10 -2 0
-4 -4 -4 -10z"/>
<path d="M4515 4210 c-3 -5 -1 -10 4 -10 6 0 11 5 11 10 0 6 -2 10 -4 10 -3 0
-8 -4 -11 -10z"/>
<path d="M8816 4212 c-5 -9 -22 -13 -46 -10 -36 3 -39 2 -45 -28 -3 -18 -13
-35 -21 -38 -14 -5 -12 -10 10 -27 14 -11 26 -29 26 -40 0 -11 5 -17 10 -14
22 14 63 15 78 3 13 -11 15 -10 9 5 -5 12 1 30 14 49 l21 29 -20 15 c-11 8
-22 27 -24 42 -2 19 -5 23 -12 14z"/>
<path d="M263 4194 c-8 -21 13 -42 28 -27 13 13 5 43 -11 43 -6 0 -13 -7 -17
-16z"/>
<path d="M2710 4175 c0 -30 -28 -65 -52 -65 -23 0 -33 -19 -14 -26 26 -10 46
-62 35 -91 -8 -22 -7 -24 8 -17 28 12 83 7 102 -10 24 -22 31 -20 31 9 0 30
28 65 52 65 26 0 31 18 8 30 -29 15 -42 54 -30 86 10 25 9 26 -12 19 -36 -11
-79 -7 -98 10 -23 21 -30 19 -30 -10z"/>
<path d="M1106 4155 c-3 -9 -19 -18 -36 -21 -24 -5 -28 -9 -19 -20 7 -8 9 -29
6 -49 -5 -29 -3 -35 12 -35 10 0 30 -9 45 -21 16 -12 26 -16 26 -8 0 16 31 38
54 39 15 0 16 3 6 15 -8 9 -10 29 -7 50 3 20 2 33 -2 31 -10 -7 -61 16 -61 27
0 13 -18 7 -24 -8z"/>
<path d="M2900 4130 c0 -5 5 -10 10 -10 6 0 10 5 10 10 0 6 -4 10 -10 10 -5 0
-10 -4 -10 -10z"/>
<path d="M7210 4120 c0 -5 5 -10 10 -10 6 0 10 5 10 10 0 6 -4 10 -10 10 -5 0
-10 -4 -10 -10z"/>
<path d="M7975 4100 c-3 -5 -1 -10 4 -10 6 0 11 5 11 10 0 6 -2 10 -4 10 -3 0
-8 -4 -11 -10z"/>
<path d="M8145 4100 c3 -5 8 -10 11 -10 2 0 4 5 4 10 0 6 -5 10 -11 10 -5 0
-7 -4 -4 -10z"/>
<path d="M11166 4065 c-3 -9 -18 -18 -34 -21 -25 -5 -28 -9 -24 -35 2 -16 -1
-36 -8 -44 -10 -12 -9 -15 8 -15 11 0 30 -11 42 -23 22 -23 24 -23 42 -5 10
10 27 18 37 18 17 0 19 5 14 34 -3 19 -1 36 6 40 16 10 13 29 -3 23 -8 -3 -26
5 -41 19 -31 28 -31 28 -39 9z"/>
<path d="M8090 4035 c-6 -15 -19 -29 -30 -32 -20 -5 -28 -23 -10 -23 5 0 12
-17 16 -38 6 -36 8 -38 39 -34 18 2 36 -1 40 -8 5 -8 14 -1 26 19 10 17 26 31
34 31 8 0 15 5 15 10 0 6 -4 10 -9 10 -12 0 -26 39 -23 61 2 12 -4 15 -28 11
-16 -2 -37 1 -45 8 -12 10 -16 7 -25 -15z"/>
<path d="M2610 4019 c0 -5 5 -7 10 -4 6 3 10 8 10 11 0 2 -4 4 -10 4 -5 0 -10
-5 -10 -11z"/>
<path d="M8245 4020 c-3 -5 -1 -10 4 -10 6 0 11 5 11 10 0 6 -2 10 -4 10 -3 0
-8 -4 -11 -10z"/>
<path d="M11360 3980 c0 -5 5 -10 10 -10 6 0 10 5 10 10 0 6 -4 10 -10 10 -5
0 -10 -4 -10 -10z"/>
<path d="M5950 3970 c0 -5 5 -10 10 -10 6 0 10 5 10 10 0 6 -4 10 -10 10 -5 0
-10 -4 -10 -10z"/>
<path d="M6024 3958 c-9 -30 -33 -47 -66 -48 -31 0 -36 -11 -12 -31 16 -13 16
-64 0 -100 -5 -12 0 -14 29 -11 29 4 40 -1 65 -28 l29 -31 7 25 c7 31 44 56
80 56 l27 0 -21 23 c-21 22 -24 61 -7 101 7 16 5 17 -14 11 -29 -9 -79 12 -86
36 -8 26 -22 24 -31 -3z"/>
<path d="M10486 3941 c-5 -8 -23 -12 -47 -9 -23 2 -38 -1 -38 -7 3 -23 -2 -36
-20 -54 -19 -19 -19 -20 -1 -26 10 -3 25 -19 32 -35 9 -22 15 -26 25 -18 7 6
27 8 43 4 25 -4 30 -2 30 13 0 10 9 30 21 45 15 19 17 26 6 26 -13 0 -31 27
-39 60 -4 11 -6 11 -12 1z"/>
<path d="M10555 3940 c-3 -5 -1 -10 4 -10 6 0 11 5 11 10 0 6 -2 10 -4 10 -3
0 -8 -4 -11 -10z"/>
<path d="M8000 3929 c0 -5 5 -7 10 -4 6 3 10 8 10 11 0 2 -4 4 -10 4 -5 0 -10
-5 -10 -11z"/>
<path d="M12159 3924 c-10 -13 -10 -17 1 -24 17 -10 30 -4 30 15 0 22 -16 26
-31 9z"/>
<path d="M1225 3920 c3 -5 8 -10 11 -10 2 0 4 5 4 10 0 6 -5 10 -11 10 -5 0
-7 -4 -4 -10z"/>
<path d="M2730 3919 c0 -5 5 -7 10 -4 6 3 10 8 10 11 0 2 -4 4 -10 4 -5 0 -10
-5 -10 -11z"/>
<path d="M1030 3909 c0 -5 5 -7 10 -4 6 3 10 8 10 11 0 2 -4 4 -10 4 -5 0 -10
-5 -10 -11z"/>
<path d="M5115 3890 c3 -5 8 -10 11 -10 2 0 4 5 4 10 0 6 -5 10 -11 10 -5 0
-7 -4 -4 -10z"/>
<path d="M8220 3889 c0 -5 5 -7 10 -4 6 3 10 8 10 11 0 2 -4 4 -10 4 -5 0 -10
-5 -10 -11z"/>
<path d="M1760 3879 c0 -5 5 -7 10 -4 6 3 10 8 10 11 0 2 -4 4 -10 4 -5 0 -10
-5 -10 -11z"/>
<path d="M5177 3860 c-14 -20 -25 -24 -66 -24 -45 0 -49 -2 -40 -18 13 -23 0
-70 -23 -86 -21 -15 -15 -32 11 -32 25 0 61 -42 61 -70 l0 -23 26 24 c20 18
36 24 70 23 38 -1 44 2 38 15 -13 28 -7 62 15 85 27 28 26 36 -2 36 -26 0 -50
25 -64 65 l-9 29 -17 -24z"/>
<path d="M9110 3869 c0 -5 5 -7 10 -4 6 3 10 8 10 11 0 2 -4 4 -10 4 -5 0 -10
-5 -10 -11z"/>
<path d="M4242 3853 c2 -10 10 -18 18 -18 8 0 16 8 18 18 2 12 -3 17 -18 17
-15 0 -20 -5 -18 -17z"/>
<path d="M6195 3860 c3 -5 8 -10 11 -10 2 0 4 5 4 10 0 6 -5 10 -11 10 -5 0
-7 -4 -4 -10z"/>
<path d="M5890 3830 c0 -5 5 -10 10 -10 6 0 10 5 10 10 0 6 -4 10 -10 10 -5 0
-10 -4 -10 -10z"/>
<path d="M9160 3825 c-14 -17 -75 -20 -85 -5 -14 23 -26 8 -19 -25 5 -31 2
-39 -26 -65 l-32 -30 25 -9 c31 -12 57 -48 57 -80 l0 -24 23 21 c22 20 62 24
97 8 12 -5 15 2 15 34 0 33 6 45 30 64 l30 24 -27 7 c-30 8 -58 44 -58 75 0
24 -13 26 -30 5z"/>
<path d="M11065 3830 c-3 -5 -1 -10 4 -10 6 0 11 5 11 10 0 6 -2 10 -4 10 -3
0 -8 -4 -11 -10z"/>
<path d="M6705 3810 c-8 -14 3 -30 21 -30 8 0 14 9 14 20 0 21 -24 28 -35 10z"/>
<path d="M9250 3810 c0 -5 5 -10 10 -10 6 0 10 5 10 10 0 6 -4 10 -10 10 -5 0
-10 -4 -10 -10z"/>
<path d="M9790 3799 c0 -21 -32 -49 -55 -49 -17 0 -17 -1 0 -20 11 -13 16 -30
13 -50 -4 -24 -1 -29 11 -25 9 2 29 -2 45 -10 35 -18 36 -18 36 -1 0 8 14 20
30 28 31 13 38 24 19 30 -6 2 -11 19 -12 38 -1 31 -4 35 -29 36 -16 1 -35 10
-43 20 -12 16 -14 16 -15 3z"/>
<path d="M10345 3790 c-3 -5 -1 -10 4 -10 6 0 11 5 11 10 0 6 -2 10 -4 10 -3
0 -8 -4 -11 -10z"/>
<path d="M8980 3780 c0 -5 5 -10 10 -10 6 0 10 5 10 10 0 6 -4 10 -10 10 -5 0
-10 -4 -10 -10z"/>
<path d="M10625 3780 c3 -5 8 -10 11 -10 2 0 4 5 4 10 0 6 -5 10 -11 10 -5 0
-7 -4 -4 -10z"/>
<path d="M1700 3765 c0 -8 -13 -24 -29 -36 -26 -19 -28 -24 -15 -36 8 -8 14
-27 14 -43 0 -22 4 -28 15 -24 8 3 27 2 42 -3 25 -9 32 -6 58 23 27 28 29 35
18 50 -7 10 -13 28 -13 41 0 15 -4 21 -15 17 -8 -3 -28 1 -45 9 -25 13 -30 13
-30 2z"/>
<path d="M10290 3749 c0 -5 5 -7 10 -4 6 3 10 8 10 11 0 2 -4 4 -10 4 -5 0
-10 -5 -10 -11z"/>
<path d="M6135 3720 c3 -5 8 -10 11 -10 2 0 4 5 4 10 0 6 -5 10 -11 10 -5 0
-7 -4 -4 -10z"/>
<path d="M280 3709 c0 -5 5 -7 10 -4 6 3 10 8 10 11 0 2 -4 4 -10 4 -5 0 -10
-5 -10 -11z"/>
<path d="M5985 3710 c-3 -5 -1 -10 4 -10 6 0 11 5 11 10 0 6 -2 10 -4 10 -3 0
-8 -4 -11 -10z"/>
<path d="M205 3673 c-8 -35 -33 -63 -55 -63 -28 0 -31 -12 -10 -35 21 -23 26
-55 14 -94 -6 -22 -5 -22 15 -11 28 15 69 5 99 -22 l22 -21 0 25 c0 30 38 68
68 68 27 0 29 16 3 29 -22 12 -32 56 -20 88 8 22 7 22 -36 16 -38 -5 -47 -2
-68 21 l-25 26 -7 -27z"/>
<path d="M7250 3680 c0 -5 5 -10 11 -10 5 0 7 5 4 10 -3 6 -8 10 -11 10 -2 0
-4 -4 -4 -10z"/>
<path d="M11530 3680 c0 -5 5 -10 11 -10 5 0 7 5 4 10 -3 6 -8 10 -11 10 -2 0
-4 -4 -4 -10z"/>
<path d="M135 3670 c3 -5 8 -10 11 -10 2 0 4 5 4 10 0 6 -5 10 -11 10 -5 0 -7
-4 -4 -10z"/>
<path d="M7320 3663 c0 -17 -9 -24 -58 -49 -1 0 4 -14 13 -30 8 -16 12 -37 9
-47 -5 -15 -2 -18 13 -13 10 3 31 -1 47 -9 35 -19 36 -19 36 0 0 8 13 23 29
33 25 15 26 19 14 31 -9 8 -13 25 -11 42 4 25 1 27 -24 27 -15 -1 -37 7 -48
17 -19 18 -20 17 -20 -2z"/>
<path d="M9270 3660 c0 -5 5 -10 11 -10 5 0 7 5 4 10 -3 6 -8 10 -11 10 -2 0
-4 -4 -4 -10z"/>
<path d="M795 3650 c3 -5 8 -10 11 -10 2 0 4 5 4 10 0 6 -5 10 -11 10 -5 0 -7
-4 -4 -10z"/>
<path d="M1600 3649 c0 -5 5 -7 10 -4 6 3 10 8 10 11 0 2 -4 4 -10 4 -5 0 -10
-5 -10 -11z"/>
<path d="M5045 3640 c-3 -5 -1 -10 4 -10 6 0 11 5 11 10 0 6 -2 10 -4 10 -3 0
-8 -4 -11 -10z"/>
<path d="M11460 3623 c-1 -37 -19 -60 -55 -69 l-29 -7 30 -23 c24 -20 29 -31
29 -68 0 -41 1 -43 20 -33 27 15 75 10 97 -10 17 -15 18 -15 18 1 0 29 32 74
57 81 28 7 30 21 4 30 -22 7 -35 38 -32 79 2 24 0 28 -16 21 -27 -12 -74 -7
-93 10 -24 21 -30 19 -30 -12z"/>
<path d="M9005 3630 c-3 -5 -1 -10 4 -10 6 0 11 5 11 10 0 6 -2 10 -4 10 -3 0
-8 -4 -11 -10z"/>
<path d="M9890 3620 c0 -5 5 -10 11 -10 5 0 7 5 4 10 -3 6 -8 10 -11 10 -2 0
-4 -4 -4 -10z"/>
<path d="M11390 3620 c0 -5 5 -10 11 -10 5 0 7 5 4 10 -3 6 -8 10 -11 10 -2 0
-4 -4 -4 -10z"/>
<path d="M3501 3599 c-13 -10 -32 -19 -42 -19 -14 0 -17 -6 -14 -28 2 -16 -1
-35 -5 -42 -6 -10 0 -19 21 -32 16 -10 32 -24 35 -32 5 -12 9 -11 25 5 10 10
29 19 42 19 20 0 22 5 22 50 0 43 -3 50 -23 55 -13 3 -26 14 -30 24 -7 19 -8
19 -31 0z"/>
<path d="M390 3599 c0 -5 5 -7 10 -4 6 3 10 8 10 11 0 2 -4 4 -10 4 -5 0 -10
-5 -10 -11z"/>
<path d="M5195 3600 c-3 -5 -1 -10 4 -10 6 0 11 5 11 10 0 6 -2 10 -4 10 -3 0
-8 -4 -11 -10z"/>
<path d="M2395 3590 c-3 -5 -1 -10 4 -10 6 0 11 5 11 10 0 6 -2 10 -4 10 -3 0
-8 -4 -11 -10z"/>
<path d="M11650 3580 c0 -5 5 -10 10 -10 6 0 10 5 10 10 0 6 -4 10 -10 10 -5
0 -10 -4 -10 -10z"/>
<path d="M9145 3570 c-3 -5 -1 -10 4 -10 6 0 11 5 11 10 0 6 -2 10 -4 10 -3 0
-8 -4 -11 -10z"/>
<path d="M9935 3570 c3 -5 8 -10 11 -10 2 0 4 5 4 10 0 6 -5 10 -11 10 -5 0
-7 -4 -4 -10z"/>
<path d="M717 3518 c-9 -15 -23 -28 -31 -28 -13 0 -13 -4 1 -31 8 -16 13 -38
10 -48 -3 -14 1 -16 25 -13 18 3 36 -2 48 -13 19 -17 20 -17 20 0 0 18 35 55
53 55 6 0 3 8 -6 18 -10 10 -17 31 -17 46 0 21 -4 26 -17 22 -10 -3 -30 0 -44
8 -24 12 -27 11 -42 -16z"/>
<path d="M2360 3529 c0 -5 5 -7 10 -4 6 3 10 8 10 11 0 2 -4 4 -10 4 -5 0 -10
-5 -10 -11z"/>
<path d="M90 3519 c0 -5 5 -7 10 -4 6 3 10 8 10 11 0 2 -4 4 -10 4 -5 0 -10
-5 -10 -11z"/>
<path d="M3635 3510 c3 -5 8 -10 11 -10 2 0 4 5 4 10 0 6 -5 10 -11 10 -5 0
-7 -4 -4 -10z"/>
<path d="M2294 3495 c-3 -8 -22 -17 -41 -21 -25 -5 -31 -10 -24 -17 15 -15 14
-60 -1 -75 -9 -9 -6 -12 15 -12 15 0 34 -8 43 -19 16 -18 17 -18 35 0 11 11
31 19 46 19 21 0 24 3 15 12 -7 7 -12 24 -12 38 0 14 5 31 12 38 9 9 6 12 -15
12 -15 0 -36 9 -47 20 -17 17 -21 18 -26 5z"/>
<path d="M2890 3490 c0 -5 5 -10 10 -10 6 0 10 5 10 10 0 6 -4 10 -10 10 -5 0
-10 -4 -10 -10z"/>
<path d="M11365 3460 c4 -6 11 -8 16 -5 14 9 11 15 -7 15 -8 0 -12 -5 -9 -10z"/>
<path d="M12375 3460 c3 -5 8 -10 11 -10 2 0 4 5 4 10 0 6 -5 10 -11 10 -5 0
-7 -4 -4 -10z"/>
<path d="M350 3449 c0 -5 5 -7 10 -4 6 3 10 8 10 11 0 2 -4 4 -10 4 -5 0 -10
-5 -10 -11z"/>
<path d="M7945 3450 c-3 -5 -1 -10 4 -10 6 0 11 5 11 10 0 6 -2 10 -4 10 -3 0
-8 -4 -11 -10z"/>
<path d="M4558 3419 c-10 -16 -24 -29 -33 -29 -17 0 -20 -16 -4 -26 6 -3 9
-21 7 -38 -3 -30 -2 -32 29 -32 21 0 38 -7 48 -19 14 -20 14 -20 15 0 0 12 12
28 29 38 28 17 29 19 15 45 -7 15 -11 34 -9 43 4 12 -2 16 -26 16 -18 0 -37 7
-43 15 -10 14 -14 12 -28 -13z"/>
<path d="M8015 3419 c-9 -26 -50 -42 -89 -33 l-30 6 17 -25 c21 -32 19 -66 -6
-94 l-20 -23 27 0 c36 0 73 -25 80 -56 l7 -25 29 31 c25 27 36 32 65 28 29 -3
34 -1 29 11 -16 36 -16 87 0 100 24 20 19 31 -12 31 -31 0 -72 32 -72 55 0 22
-18 18 -25 -6z"/>
<path d="M8100 3430 c0 -5 5 -10 10 -10 6 0 10 5 10 10 0 6 -4 10 -10 10 -5 0
-10 -4 -10 -10z"/>
<path d="M11630 3430 c0 -5 5 -10 10 -10 6 0 10 5 10 10 0 6 -4 10 -10 10 -5
0 -10 -4 -10 -10z"/>
<path d="M2100 3419 c0 -5 5 -7 10 -4 6 3 10 8 10 11 0 2 -4 4 -10 4 -5 0 -10
-5 -10 -11z"/>
<path d="M10845 3420 c-3 -5 -1 -10 4 -10 6 0 11 5 11 10 0 6 -2 10 -4 10 -3
0 -8 -4 -11 -10z"/>
<path d="M200 3409 c0 -5 5 -7 10 -4 6 3 10 8 10 11 0 2 -4 4 -10 4 -5 0 -10
-5 -10 -11z"/>
<path d="M12486 3389 c-9 -16 -24 -29 -33 -29 -14 0 -14 -3 2 -20 10 -11 18
-34 18 -50 0 -23 4 -27 15 -21 16 9 50 4 70 -12 9 -7 12 -4 12 11 0 11 11 29
24 39 21 17 22 21 10 38 -8 10 -14 29 -14 42 0 20 -4 22 -24 17 -13 -3 -33 -1
-43 5 -16 8 -22 5 -37 -20z"/>
<path d="M4775 3400 c3 -5 8 -10 11 -10 2 0 4 5 4 10 0 6 -5 10 -11 10 -5 0
-7 -4 -4 -10z"/>
<path d="M10770 3372 c0 -34 -38 -72 -74 -72 -20 0 -19 -1 6 -23 33 -27 42
-56 28 -92 -9 -24 -8 -26 7 -19 29 13 83 7 104 -12 18 -16 19 -16 25 2 15 47
30 66 56 71 34 7 34 10 6 33 -18 14 -23 28 -22 63 1 43 0 45 -21 37 -29 -11
-64 -2 -92 23 l-23 20 0 -31z"/>
<path d="M2850 3361 c0 -11 -9 -30 -20 -41 l-20 -20 20 -22 c11 -12 20 -29 20
-37 0 -12 11 -16 42 -16 37 0 45 4 57 28 8 16 20 31 27 34 8 3 4 13 -12 30
-16 18 -22 33 -18 46 4 14 3 17 -6 12 -21 -13 -63 -15 -77 -3 -10 8 -13 5 -13
-11z"/>
<path d="M11490 3370 c0 -5 5 -10 11 -10 5 0 7 5 4 10 -3 6 -8 10 -11 10 -2 0
-4 -4 -4 -10z"/>
<path d="M3000 3360 c0 -5 5 -10 10 -10 6 0 10 5 10 10 0 6 -4 10 -10 10 -5 0
-10 -4 -10 -10z"/>
<path d="M3580 3350 c0 -5 5 -10 11 -10 5 0 7 5 4 10 -3 6 -8 10 -11 10 -2 0
-4 -4 -4 -10z"/>
<path d="M895 3330 c3 -5 8 -10 11 -10 2 0 4 5 4 10 0 6 -5 10 -11 10 -5 0 -7
-4 -4 -10z"/>
<path d="M5570 3326 c0 -9 -11 -28 -25 -42 -24 -24 -24 -25 -5 -44 11 -11 20
-28 20 -37 0 -15 9 -18 45 -18 25 0 45 4 45 8 0 4 11 19 25 33 24 24 24 25 5
44 -11 11 -20 29 -20 40 0 16 -5 19 -30 14 -18 -4 -36 -1 -45 6 -12 10 -15 9
-15 -4z"/>
<path d="M7855 3320 c3 -5 8 -10 11 -10 2 0 4 5 4 10 0 6 -5 10 -11 10 -5 0
-7 -4 -4 -10z"/>
<path d="M9540 3310 c0 -5 5 -10 10 -10 6 0 10 5 10 10 0 6 -4 10 -10 10 -5 0
-10 -4 -10 -10z"/>
<path d="M10960 3309 c0 -5 5 -7 10 -4 6 3 10 8 10 11 0 2 -4 4 -10 4 -5 0
-10 -5 -10 -11z"/>
<path d="M8160 3290 c0 -5 5 -10 10 -10 6 0 10 5 10 10 0 6 -4 10 -10 10 -5 0
-10 -4 -10 -10z"/>
<path d="M9602 3267 c-18 -22 -63 -27 -94 -11 -27 14 -27 14 -22 -13 7 -37
-10 -80 -35 -88 -26 -8 -27 -25 -3 -25 27 0 62 -42 62 -74 0 -23 3 -26 14 -17
30 25 79 32 104 15 l25 -16 -7 36 c-6 32 -3 40 23 67 35 35 37 39 16 39 -20 0
-54 39 -63 73 -7 25 -9 27 -20 14z"/>
<path d="M12340 3270 c0 -5 5 -10 10 -10 6 0 10 5 10 10 0 6 -4 10 -10 10 -5
0 -10 -4 -10 -10z"/>
<path d="M4675 3260 c3 -5 8 -10 11 -10 2 0 4 5 4 10 0 6 -5 10 -11 10 -5 0
-7 -4 -4 -10z"/>
<path d="M9680 3250 c0 -5 5 -10 10 -10 6 0 10 5 10 10 0 6 -4 10 -10 10 -5 0
-10 -4 -10 -10z"/>
<path d="M8760 3220 c0 -5 5 -10 10 -10 6 0 10 5 10 10 0 6 -4 10 -10 10 -5 0
-10 -4 -10 -10z"/>
<path d="M8830 3197 c-7 -16 -18 -31 -25 -33 -9 -4 -6 -13 11 -31 13 -14 24
-32 24 -39 0 -10 9 -12 30 -8 18 4 36 1 45 -6 13 -10 15 -9 15 9 0 12 10 32
23 45 22 22 22 24 5 35 -9 6 -20 21 -23 33 -5 19 -13 23 -49 23 -38 0 -45 -4
-56 -28z"/>
<path d="M9420 3220 c0 -5 5 -10 11 -10 5 0 7 5 4 10 -3 6 -8 10 -11 10 -2 0
-4 -4 -4 -10z"/>
<path d="M10660 3220 c0 -5 5 -10 10 -10 6 0 10 5 10 10 0 6 -4 10 -10 10 -5
0 -10 -4 -10 -10z"/>
<path d="M12500 3210 c0 -5 5 -10 10 -10 6 0 10 5 10 10 0 6 -4 10 -10 10 -5
0 -10 -4 -10 -10z"/>
<path d="M7920 3180 c0 -5 5 -10 10 -10 6 0 10 5 10 10 0 6 -4 10 -10 10 -5 0
-10 -4 -10 -10z"/>
<path d="M10135 3180 c3 -5 8 -10 11 -10 2 0 4 5 4 10 0 6 -5 10 -11 10 -5 0
-7 -4 -4 -10z"/>
<path d="M4530 3170 c0 -5 5 -10 11 -10 5 0 7 5 4 10 -3 6 -8 10 -11 10 -2 0
-4 -4 -4 -10z"/>
<path d="M10205 3161 c-7 -24 -41 -41 -82 -41 -20 0 -24 -3 -18 -17 17 -38 16
-72 0 -97 -17 -26 -17 -26 11 -26 32 0 68 -25 78 -53 5 -17 9 -16 35 12 22 24
38 31 65 31 35 0 36 1 22 23 -18 27 -13 72 10 98 17 18 16 19 -18 19 -34 0
-54 14 -82 54 -13 19 -14 19 -21 -3z"/>
<path d="M10290 3169 c0 -5 5 -7 10 -4 6 3 10 8 10 11 0 2 -4 4 -10 4 -5 0
-10 -5 -10 -11z"/>
<path d="M8075 3160 c3 -5 8 -10 11 -10 2 0 4 5 4 10 0 6 -5 10 -11 10 -5 0
-7 -4 -4 -10z"/>
<path d="M10925 3160 c3 -5 8 -10 11 -10 2 0 4 5 4 10 0 6 -5 10 -11 10 -5 0
-7 -4 -4 -10z"/>
<path d="M1257 3154 c-14 -14 -7 -35 11 -32 9 2 17 10 17 17 0 16 -18 25 -28
15z"/>
<path d="M10781 3114 c0 -11 3 -14 6 -6 3 7 2 16 -1 19 -3 4 -6 -2 -5 -13z"/>
<path d="M11920 3110 c0 -15 5 -20 18 -18 9 2 17 10 17 18 0 8 -8 16 -17 18
-13 2 -18 -3 -18 -18z"/>
<path d="M6507 3114 c-14 -14 -7 -35 11 -32 9 2 17 10 17 17 0 16 -18 25 -28
15z"/>
<path d="M5590 3059 c0 -5 5 -7 10 -4 6 3 10 8 10 11 0 2 -4 4 -10 4 -5 0 -10
-5 -10 -11z"/>
<path d="M9435 3060 c3 -5 8 -10 11 -10 2 0 4 5 4 10 0 6 -5 10 -11 10 -5 0
-7 -4 -4 -10z"/>
<path d="M10050 3049 c0 -5 5 -7 10 -4 6 3 10 8 10 11 0 2 -4 4 -10 4 -5 0
-10 -5 -10 -11z"/>
<path d="M4045 3034 c-10 -8 -29 -14 -42 -14 -15 0 -21 -4 -17 -15 3 -8 -1
-28 -9 -45 -12 -24 -13 -30 -2 -30 7 0 24 -13 38 -30 22 -25 27 -27 37 -15 7
8 25 15 41 15 21 0 27 4 23 15 -3 8 1 28 9 44 14 28 14 31 -4 36 -10 3 -27 17
-37 29 -16 21 -20 22 -37 10z"/>
<path d="M7120 3040 c0 -5 5 -10 11 -10 5 0 7 5 4 10 -3 6 -8 10 -11 10 -2 0
-4 -4 -4 -10z"/>
<path d="M10355 3040 c-3 -5 -1 -10 4 -10 6 0 11 5 11 10 0 6 -2 10 -4 10 -3
0 -8 -4 -11 -10z"/>
<path d="M1880 3010 c0 -5 5 -10 10 -10 6 0 10 5 10 10 0 6 -4 10 -10 10 -5 0
-10 -4 -10 -10z"/>
<path d="M3850 3000 c0 -5 5 -10 10 -10 6 0 10 5 10 10 0 6 -4 10 -10 10 -5 0
-10 -4 -10 -10z"/>
<path d="M7179 2995 c-22 -22 -68 -26 -96 -8 -23 15 -23 15 -23 -22 0 -28 -7
-44 -28 -63 l-29 -26 31 -21 c23 -15 32 -30 36 -58 5 -36 6 -37 25 -23 23 17
81 21 90 6 13 -21 25 -9 25 25 0 34 27 75 50 75 21 0 9 20 -15 26 -14 3 -25
12 -25 20 0 8 -4 14 -9 14 -6 0 -11 16 -13 35 -3 33 -4 35 -19 20z"/>
<path d="M1944 2970 c-20 -21 -67 -29 -94 -17 -12 6 -15 -2 -15 -39 0 -35 -5
-50 -22 -64 -29 -23 -29 -30 -1 -30 26 0 68 -44 68 -72 0 -24 12 -23 28 2 13
22 60 27 91 11 16 -9 17 -4 17 40 -1 42 3 53 24 69 l25 18 -30 8 c-32 8 -57
35 -65 72 l-5 23 -21 -21z"/>
<path d="M7255 2970 c-3 -5 -1 -10 4 -10 6 0 11 5 11 10 0 6 -2 10 -4 10 -3 0
-8 -4 -11 -10z"/>
<path d="M2030 2960 c0 -5 5 -10 10 -10 6 0 10 5 10 10 0 6 -4 10 -10 10 -5 0
-10 -4 -10 -10z"/>
<path d="M260 2920 c0 -15 5 -20 18 -18 9 2 17 10 17 18 0 8 -8 16 -17 18 -13
2 -18 -3 -18 -18z"/>
<path d="M10120 2909 c0 -5 5 -7 10 -4 6 3 10 8 10 11 0 2 -4 4 -10 4 -5 0
-10 -5 -10 -11z"/>
<path d="M10275 2910 c-3 -5 -1 -10 4 -10 6 0 11 5 11 10 0 6 -2 10 -4 10 -3
0 -8 -4 -11 -10z"/>
<path d="M2065 2810 c3 -5 8 -10 11 -10 2 0 4 5 4 10 0 6 -5 10 -11 10 -5 0
-7 -4 -4 -10z"/>
<path d="M4926 2811 c-3 -5 0 -14 8 -20 10 -8 16 -8 25 2 6 8 8 17 4 20 -9 10
-31 9 -37 -2z"/>
<path d="M7265 2810 c3 -5 8 -10 11 -10 2 0 4 5 4 10 0 6 -5 10 -11 10 -5 0
-7 -4 -4 -10z"/>
<path d="M7000 2799 c0 -5 5 -7 10 -4 6 3 10 8 10 11 0 2 -4 4 -10 4 -5 0 -10
-5 -10 -11z"/>
<path d="M11365 2800 c-3 -5 -1 -10 4 -10 6 0 11 5 11 10 0 6 -2 10 -4 10 -3
0 -8 -4 -11 -10z"/>
<path d="M730 2779 c0 -5 5 -7 10 -4 6 3 10 8 10 11 0 2 -4 4 -10 4 -5 0 -10
-5 -10 -11z"/>
<path d="M5820 2780 c0 -5 5 -10 10 -10 6 0 10 5 10 10 0 6 -4 10 -10 10 -5 0
-10 -4 -10 -10z"/>
<path d="M2660 2760 c0 -5 5 -10 10 -10 6 0 10 5 10 10 0 6 -4 10 -10 10 -5 0
-10 -4 -10 -10z"/>
<path d="M1800 2750 c0 -5 5 -10 10 -10 6 0 10 5 10 10 0 6 -4 10 -10 10 -5 0
-10 -4 -10 -10z"/>
<path d="M11320 2749 c0 -5 5 -7 10 -4 6 3 10 8 10 11 0 2 -4 4 -10 4 -5 0
-10 -5 -10 -11z"/>
<path d="M5760 2726 c0 -36 -26 -73 -57 -81 l-26 -6 31 -19 c33 -20 48 -56 39
-90 -6 -24 -3 -24 26 -6 27 17 57 15 91 -7 l26 -18 -2 28 c-2 38 18 71 47 79
30 7 32 20 6 29 -30 9 -52 51 -45 82 6 23 5 25 -12 18 -41 -18 -85 -18 -104 0
-19 18 -20 17 -20 -9z"/>
<path d="M11230 2733 c-14 -7 -33 -11 -43 -9 -13 3 -16 0 -13 -12 3 -9 -1 -30
-9 -46 -19 -35 -19 -36 0 -36 8 0 23 -13 33 -29 15 -25 19 -26 31 -14 8 9 25
13 42 11 25 -4 27 -1 27 24 -1 15 7 37 17 48 17 19 17 20 1 20 -18 0 -36 14
-52 41 -8 13 -13 13 -34 2z"/>
<path d="M725 2720 c-3 -5 -1 -10 4 -10 6 0 11 5 11 10 0 6 -2 10 -4 10 -3 0
-8 -4 -11 -10z"/>
<path d="M7610 2719 c0 -5 5 -7 10 -4 6 3 10 8 10 11 0 2 -4 4 -10 4 -5 0 -10
-5 -10 -11z"/>
<path d="M1950 2710 c0 -5 5 -10 11 -10 5 0 7 5 4 10 -3 6 -8 10 -11 10 -2 0
-4 -4 -4 -10z"/>
<path d="M5680 2710 c0 -5 5 -10 10 -10 6 0 10 5 10 10 0 6 -4 10 -10 10 -5 0
-10 -4 -10 -10z"/>
<path d="M5950 2700 c0 -5 5 -10 10 -10 6 0 10 5 10 10 0 6 -4 10 -10 10 -5 0
-10 -4 -10 -10z"/>
<path d="M7540 2696 c0 -32 -33 -75 -63 -82 l-29 -6 20 -21 c27 -30 34 -60 22
-92 -9 -24 -8 -26 7 -19 33 15 83 6 102 -17 l18 -22 7 26 c9 38 37 67 63 67
27 0 30 12 7 31 -25 20 -35 56 -24 84 9 24 9 24 -35 18 -39 -5 -46 -2 -69 22
-21 22 -26 24 -26 11z"/>
<path d="M8500 2690 c0 -5 5 -10 11 -10 5 0 7 5 4 10 -3 6 -8 10 -11 10 -2 0
-4 -4 -4 -10z"/>
<path d="M7460 2680 c0 -5 5 -10 10 -10 6 0 10 5 10 10 0 6 -4 10 -10 10 -5 0
-10 -4 -10 -10z"/>
<path d="M3280 2670 c0 -5 5 -10 10 -10 6 0 10 5 10 10 0 6 -4 10 -10 10 -5 0
-10 -4 -10 -10z"/>
<path d="M8630 2659 c0 -9 -8 -27 -18 -39 -18 -22 -18 -23 5 -48 13 -14 21
-32 19 -39 -4 -10 1 -12 22 -7 15 4 29 8 31 10 2 2 12 -1 21 -6 15 -8 19 -4
24 24 4 19 13 37 21 40 12 4 10 11 -10 32 -14 15 -24 33 -22 38 3 7 -14 11
-44 11 -39 0 -49 -3 -49 -16z"/>
<path d="M8780 2669 c0 -5 5 -7 10 -4 6 3 10 8 10 11 0 2 -4 4 -10 4 -5 0 -10
-5 -10 -11z"/>
<path d="M672 2640 c-8 -17 -20 -30 -28 -30 -8 0 -14 -4 -14 -10 0 -5 3 -10 8
-10 12 0 31 -51 25 -67 -5 -13 -3 -14 12 -6 19 11 52 7 73 -10 9 -7 12 -4 12
11 0 11 11 30 23 42 23 22 23 24 5 42 -10 10 -18 27 -18 37 0 13 -7 19 -22 18
-13 -1 -32 2 -43 6 -16 5 -23 1 -33 -23z"/>
<path d="M1390 2660 c0 -5 5 -10 10 -10 6 0 10 5 10 10 0 6 -4 10 -10 10 -5 0
-10 -4 -10 -10z"/>
<path d="M3353 2651 c-7 -28 -58 -53 -92 -44 l-25 6 17 -26 c21 -33 22 -61 1
-92 -16 -25 -16 -25 12 -25 35 -1 56 -15 77 -55 9 -16 16 -24 17 -17 0 27 48
62 85 62 35 0 36 0 21 22 -20 28 -20 72 -1 88 23 19 18 30 -13 30 -32 0 -72
25 -72 45 0 23 -21 28 -27 6z"/>
<path d="M3435 2660 c3 -5 8 -10 11 -10 2 0 4 5 4 10 0 6 -5 10 -11 10 -5 0
-7 -4 -4 -10z"/>
<path d="M2705 2640 c-5 -8 -21 -10 -41 -7 -29 5 -34 3 -34 -14 0 -10 -9 -28
-20 -39 -19 -19 -19 -20 5 -44 14 -14 25 -33 25 -42 0 -13 3 -14 15 -4 8 7 28
10 45 8 24 -4 30 -1 30 14 0 10 9 27 21 39 18 18 19 22 5 32 -8 7 -22 25 -30
40 -9 19 -16 24 -21 17z"/>
<path d="M1320 2613 c0 -32 -35 -73 -63 -73 -24 0 -21 -15 6 -33 18 -12 22
-23 21 -61 -1 -40 2 -46 15 -40 30 14 72 7 96 -16 l25 -23 0 30 c0 32 35 73
63 73 24 0 21 15 -5 33 -19 12 -23 23 -22 61 1 40 -2 46 -15 40 -29 -13 -74
-5 -98 17 l-23 22 0 -30z"/>
<path d="M1245 2610 c-3 -5 -1 -10 4 -10 6 0 11 5 11 10 0 6 -2 10 -4 10 -3 0
-8 -4 -11 -10z"/>
<path d="M8127 2598 c-9 -10 -29 -18 -43 -18 -20 0 -24 -3 -16 -12 10 -14 10
-53 -1 -64 -13 -14 -7 -22 24 -28 19 -4 33 -13 36 -26 5 -20 6 -19 31 5 14 15
33 24 42 22 12 -3 15 6 15 45 0 33 -4 48 -13 48 -7 0 -23 10 -35 23 -21 21
-23 21 -40 5z"/>
<path d="M9745 2591 c-8 -15 3 -31 21 -31 9 0 14 7 12 17 -4 20 -24 28 -33 14z"/>
<path d="M1505 2560 c-3 -5 1 -10 10 -10 9 0 13 5 10 10 -3 6 -8 10 -10 10 -2
0 -7 -4 -10 -10z"/>
<path d="M5675 2560 c-3 -5 -1 -10 4 -10 6 0 11 5 11 10 0 6 -2 10 -4 10 -3 0
-8 -4 -11 -10z"/>
<path d="M3200 2540 c0 -5 5 -10 11 -10 5 0 7 5 4 10 -3 6 -8 10 -11 10 -2 0
-4 -4 -4 -10z"/>
<path d="M5940 2540 c0 -5 5 -10 10 -10 6 0 10 5 10 10 0 6 -4 10 -10 10 -5 0
-10 -4 -10 -10z"/>
<path d="M11260 2540 c0 -5 5 -10 11 -10 5 0 7 5 4 10 -3 6 -8 10 -11 10 -2 0
-4 -4 -4 -10z"/>
<path d="M7420 2530 c0 -5 5 -10 10 -10 6 0 10 5 10 10 0 6 -4 10 -10 10 -5 0
-10 -4 -10 -10z"/>
<path d="M10475 2530 c3 -5 8 -10 11 -10 2 0 4 5 4 10 0 6 -5 10 -11 10 -5 0
-7 -4 -4 -10z"/>
<path d="M12540 2520 c0 -15 5 -20 18 -18 9 2 17 10 17 18 0 8 -8 16 -17 18
-13 2 -18 -3 -18 -18z"/>
<path d="M8265 2520 c3 -5 8 -10 11 -10 2 0 4 5 4 10 0 6 -5 10 -11 10 -5 0
-7 -4 -4 -10z"/>
<path d="M535 2510 c3 -5 8 -10 11 -10 2 0 4 5 4 10 0 6 -5 10 -11 10 -5 0 -7
-4 -4 -10z"/>
<path d="M8845 2510 c3 -5 8 -10 11 -10 2 0 4 5 4 10 0 6 -5 10 -11 10 -5 0
-7 -4 -4 -10z"/>
<path d="M11931 2486 c-9 -10 -8 -16 3 -25 10 -9 16 -8 25 3 9 10 8 16 -3 25
-10 9 -16 8 -25 -3z"/>
<path d="M10582 2461 c-7 -16 -23 -32 -35 -35 -18 -5 -19 -8 -8 -15 8 -5 15
-25 15 -45 1 -30 4 -34 21 -30 11 2 31 -2 45 -9 22 -11 26 -10 35 7 6 10 19
24 30 30 11 6 22 12 25 14 2 2 -2 7 -10 12 -7 4 -14 24 -14 43 -1 32 -3 34
-31 32 -16 -2 -37 3 -45 11 -13 11 -17 9 -28 -15z"/>
<path d="M5805 2470 c3 -5 8 -10 11 -10 2 0 4 5 4 10 0 6 -5 10 -11 10 -5 0
-7 -4 -4 -10z"/>
<path d="M2510 2459 c0 -5 5 -7 10 -4 6 3 10 8 10 11 0 2 -4 4 -10 4 -5 0 -10
-5 -10 -11z"/>
<path d="M1215 2450 c4 -6 11 -8 16 -5 14 9 11 15 -7 15 -8 0 -12 -5 -9 -10z"/>
<path d="M7535 2431 c-3 -5 -1 -12 5 -16 5 -3 10 1 10 9 0 18 -6 21 -15 7z"/>
<path d="M8195 2410 c3 -5 8 -10 11 -10 2 0 4 5 4 10 0 6 -5 10 -11 10 -5 0
-7 -4 -4 -10z"/>
<path d="M8680 2410 c0 -5 5 -10 11 -10 5 0 7 5 4 10 -3 6 -8 10 -11 10 -2 0
-4 -4 -4 -10z"/>
<path d="M690 2400 c0 -5 5 -10 11 -10 5 0 7 5 4 10 -3 6 -8 10 -11 10 -2 0
-4 -4 -4 -10z"/>
<path d="M1480 2399 c0 -5 5 -7 10 -4 6 3 10 8 10 11 0 2 -4 4 -10 4 -5 0 -10
-5 -10 -11z"/>
<path d="M3270 2399 c0 -5 5 -7 10 -4 6 3 10 8 10 11 0 2 -4 4 -10 4 -5 0 -10
-5 -10 -11z"/>
<path d="M3425 2390 c3 -5 8 -10 11 -10 2 0 4 5 4 10 0 6 -5 10 -11 10 -5 0
-7 -4 -4 -10z"/>
<path d="M9055 2380 c3 -5 8 -10 11 -10 2 0 4 5 4 10 0 6 -5 10 -11 10 -5 0
-7 -4 -4 -10z"/>
<path d="M2680 2370 c0 -5 5 -10 10 -10 6 0 10 5 10 10 0 6 -4 10 -10 10 -5 0
-10 -4 -10 -10z"/>
<path d="M10490 2359 c0 -5 5 -7 10 -4 6 3 10 8 10 11 0 2 -4 4 -10 4 -5 0
-10 -5 -10 -11z"/>
<path d="M1335 2350 c3 -5 8 -10 11 -10 2 0 4 5 4 10 0 6 -5 10 -11 10 -5 0
-7 -4 -4 -10z"/>
<path d="M9095 2330 c-3 -5 -1 -10 4 -10 6 0 11 5 11 10 0 6 -2 10 -4 10 -3 0
-8 -4 -11 -10z"/>
<path d="M9160 2306 c0 -9 -13 -22 -29 -31 -27 -13 -29 -18 -21 -45 5 -17 7
-37 4 -44 -3 -9 7 -16 30 -20 19 -4 37 -12 39 -19 3 -7 13 -1 26 16 13 15 31
27 41 27 17 0 18 2 5 28 -8 15 -12 35 -9 45 4 12 0 17 -14 17 -11 0 -31 9 -46
21 -21 17 -26 18 -26 5z"/>
<path d="M4010 2288 c-12 -10 -31 -18 -42 -18 -11 0 -16 -5 -13 -11 11 -17 13
-59 4 -65 -15 -9 -10 -27 5 -21 8 3 26 -5 40 -18 26 -24 27 -24 46 -5 11 11
28 20 38 20 14 0 17 9 17 50 0 41 -3 50 -17 50 -10 0 -26 8 -36 18 -18 18 -19
18 -42 0z"/>
<path d="M236 2255 c-3 -9 -18 -18 -33 -21 -26 -5 -28 -9 -28 -55 0 -34 4 -48
12 -45 6 3 23 -6 37 -19 l26 -24 27 25 c15 14 33 22 40 20 10 -4 12 1 7 22 -4
15 -8 29 -10 31 -2 2 1 12 7 22 8 16 6 19 -11 19 -11 0 -29 9 -40 20 -24 24
-26 24 -34 5z"/>
<path d="M4682 2253 c2 -10 10 -18 18 -18 22 0 18 29 -3 33 -14 3 -18 -1 -15
-15z"/>
<path d="M6379 2239 c-9 -13 -29 -22 -57 -26 -35 -5 -42 -9 -36 -22 12 -25 6
-72 -11 -91 -21 -24 -19 -30 13 -30 31 0 72 -32 72 -55 0 -21 15 -18 31 6 9
13 29 22 57 26 35 5 42 9 36 22 -12 25 -6 72 11 91 21 24 19 30 -13 30 -31 0
-72 32 -72 55 0 21 -15 18 -31 -6z"/>
<path d="M6470 2249 c0 -5 5 -7 10 -4 6 3 10 8 10 11 0 2 -4 4 -10 4 -5 0 -10
-5 -10 -11z"/>
<path d="M4155 2220 c-3 -5 -1 -10 4 -10 6 0 11 5 11 10 0 6 -2 10 -4 10 -3 0
-8 -4 -11 -10z"/>
<path d="M8980 2199 c0 -5 5 -7 10 -4 6 3 10 8 10 11 0 2 -4 4 -10 4 -5 0 -10
-5 -10 -11z"/>
<path d="M6220 2150 c0 -5 5 -10 10 -10 6 0 10 5 10 10 0 6 -4 10 -10 10 -5 0
-10 -4 -10 -10z"/>
<path d="M5377 2126 c-3 -7 -19 -20 -36 -27 -23 -10 -27 -16 -19 -26 6 -7 8
-27 4 -43 -5 -25 -2 -30 14 -30 11 0 29 -9 40 -20 17 -17 21 -18 26 -6 6 17
41 31 63 27 13 -2 13 0 2 13 -8 9 -11 31 -9 51 3 29 1 35 -14 35 -10 0 -27 9
-38 20 -24 24 -26 24 -33 6z"/>
<path d="M6995 2121 c-8 -15 3 -31 21 -31 9 0 14 7 12 17 -4 20 -24 28 -33 14z"/>
<path d="M2027 2114 c-14 -15 -6 -34 14 -34 14 0 19 5 17 17 -3 18 -20 27 -31
17z"/>
<path d="M6530 2110 c0 -5 5 -10 10 -10 6 0 10 5 10 10 0 6 -4 10 -10 10 -5 0
-10 -4 -10 -10z"/>
<path d="M9125 2110 c-3 -5 -1 -10 4 -10 6 0 11 5 11 10 0 6 -2 10 -4 10 -3 0
-8 -4 -11 -10z"/>
<path d="M740 2100 c0 -5 5 -10 10 -10 6 0 10 5 10 10 0 6 -4 10 -10 10 -5 0
-10 -4 -10 -10z"/>
<path d="M670 2062 c0 -26 -44 -72 -70 -72 -25 0 -26 -16 -1 -29 24 -13 34
-52 21 -87 -10 -25 -9 -26 12 -19 38 11 71 6 93 -15 23 -21 35 -18 35 10 0 24
42 60 71 60 l24 1 -28 22 c-29 24 -38 65 -22 101 7 17 6 18 -11 11 -33 -15
-74 -9 -99 15 -25 23 -25 23 -25 2z"/>
<path d="M590 2060 c0 -5 5 -10 10 -10 6 0 10 5 10 10 0 6 -4 10 -10 10 -5 0
-10 -4 -10 -10z"/>
<path d="M1292 2038 c-17 -17 -33 -23 -67 -22 -39 1 -43 -1 -35 -17 16 -30 11
-71 -12 -96 l-21 -23 24 0 c32 -1 66 -30 75 -65 l7 -27 22 28 c19 23 30 29 62
28 l40 -1 -5 47 c-4 41 -1 50 17 62 29 18 26 28 -7 28 -31 0 -56 21 -69 58
l-8 22 -23 -22z"/>
<path d="M5190 2040 c0 -5 5 -10 10 -10 6 0 10 5 10 10 0 6 -4 10 -10 10 -5 0
-10 -4 -10 -10z"/>
<path d="M6285 2010 c-3 -5 -1 -10 4 -10 6 0 11 5 11 10 0 6 -2 10 -4 10 -3 0
-8 -4 -11 -10z"/>
<path d="M850 1990 c0 -5 5 -10 10 -10 6 0 10 5 10 10 0 6 -4 10 -10 10 -5 0
-10 -4 -10 -10z"/>
<path d="M6440 1990 c0 -5 5 -10 11 -10 5 0 7 5 4 10 -3 6 -8 10 -11 10 -2 0
-4 -4 -4 -10z"/>
<path d="M12350 1980 c0 -5 5 -10 10 -10 6 0 10 5 10 10 0 6 -4 10 -10 10 -5
0 -10 -4 -10 -10z"/>
<path d="M12480 1980 c0 -5 5 -10 10 -10 6 0 10 5 10 10 0 6 -4 10 -10 10 -5
0 -10 -4 -10 -10z"/>
<path d="M1130 1960 c0 -5 5 -10 11 -10 5 0 7 5 4 10 -3 6 -8 10 -11 10 -2 0
-4 -4 -4 -10z"/>
<path d="M2695 1950 c3 -5 8 -10 11 -10 2 0 4 5 4 10 0 6 -5 10 -11 10 -5 0
-7 -4 -4 -10z"/>
<path d="M9827 1954 c-14 -15 -6 -34 14 -34 14 0 19 5 17 17 -3 18 -20 27 -31
17z"/>
<path d="M11432 1938 c-17 -17 -33 -23 -66 -22 -43 1 -44 0 -35 -24 12 -30 4
-59 -24 -89 l-20 -23 24 0 c32 -1 66 -31 75 -65 l7 -28 18 24 c15 20 26 24 68
23 46 0 49 1 40 18 -14 26 -1 78 25 100 l21 17 -26 1 c-32 0 -68 30 -77 64
l-7 26 -23 -22z"/>
<path d="M12401 1932 c-17 -15 -31 -20 -45 -16 -17 5 -19 4 -8 -7 15 -17 16
-61 0 -77 -9 -9 -7 -12 10 -12 13 0 33 -10 46 -23 l23 -23 17 23 c9 13 25 23
36 23 16 0 18 5 13 35 -4 22 -1 41 8 51 12 15 11 16 -7 10 -14 -4 -28 1 -45
16 l-24 23 -24 -23z"/>
<path d="M11520 1940 c0 -5 5 -10 10 -10 6 0 10 5 10 10 0 6 -4 10 -10 10 -5
0 -10 -4 -10 -10z"/>
<path d="M2757 1913 c-18 -21 -82 -30 -92 -13 -12 20 -26 9 -24 -17 3 -42 -10
-69 -39 -83 l-27 -13 26 -11 c40 -17 59 -42 59 -76 l0 -31 26 20 c29 23 64 27
95 11 17 -9 19 -7 19 17 0 48 11 70 38 83 l27 13 -28 11 c-34 15 -54 43 -59
80 -3 28 -3 28 -21 9z"/>
<path d="M555 1910 c-3 -5 -1 -10 4 -10 6 0 11 5 11 10 0 6 -2 10 -4 10 -3 0
-8 -4 -11 -10z"/>
<path d="M7647 1914 c-14 -14 -7 -35 11 -32 9 2 17 10 17 17 0 16 -18 25 -28
15z"/>
<path d="M1430 1900 c0 -5 5 -10 10 -10 6 0 10 5 10 10 0 6 -4 10 -10 10 -5 0
-10 -4 -10 -10z"/>
<path d="M2840 1889 c0 -5 5 -7 10 -4 6 3 10 8 10 11 0 2 -4 4 -10 4 -5 0 -10
-5 -10 -11z"/>
<path d="M5490 1890 c0 -5 5 -10 11 -10 5 0 7 5 4 10 -3 6 -8 10 -11 10 -2 0
-4 -4 -4 -10z"/>
<path d="M8251 1870 c-16 -9 -6 -30 15 -30 15 0 20 25 6 34 -4 2 -14 1 -21 -4z"/>
<path d="M2570 1860 c0 -5 5 -10 10 -10 6 0 10 5 10 10 0 6 -4 10 -10 10 -5 0
-10 -4 -10 -10z"/>
<path d="M11265 1860 c3 -5 8 -10 11 -10 2 0 4 5 4 10 0 6 -5 10 -11 10 -5 0
-7 -4 -4 -10z"/>
<path d="M810 1840 c0 -5 5 -10 10 -10 6 0 10 5 10 10 0 6 -4 10 -10 10 -5 0
-10 -4 -10 -10z"/>
<path d="M1180 1810 c0 -5 5 -10 10 -10 6 0 10 5 10 10 0 6 -4 10 -10 10 -5 0
-10 -4 -10 -10z"/>
<path d="M4570 1810 c0 -5 5 -10 10 -10 6 0 10 5 10 10 0 6 -4 10 -10 10 -5 0
-10 -4 -10 -10z"/>
<path d="M4646 1797 c-6 -24 -53 -57 -82 -57 -15 0 -16 -2 -2 -17 24 -28 28
-63 12 -95 -15 -29 -15 -30 6 -23 35 11 79 -4 94 -33 l14 -27 12 29 c14 38 38
55 74 56 27 0 28 1 14 18 -24 27 -29 76 -11 102 16 23 16 23 -15 17 -38 -8
-79 9 -87 35 -8 25 -22 23 -29 -5z"/>
<path d="M665 1800 c-3 -5 -1 -10 4 -10 6 0 11 5 11 10 0 6 -2 10 -4 10 -3 0
-8 -4 -11 -10z"/>
<path d="M3495 1772 c-7 -34 -29 -56 -64 -67 l-25 -8 25 -19 c20 -17 24 -29
23 -69 0 -44 1 -47 18 -38 25 13 79 4 90 -15 13 -23 28 -19 28 7 0 26 38 67
61 67 26 0 30 13 8 28 -28 20 -41 56 -29 88 9 23 8 25 -12 18 -37 -13 -68 -7
-93 16 l-23 22 -7 -30z"/>
<path d="M10565 1790 c-8 -13 3 -30 20 -30 14 0 27 24 18 34 -10 9 -31 7 -38
-4z"/>
<path d="M11565 1790 c3 -5 8 -10 11 -10 2 0 4 5 4 10 0 6 -5 10 -11 10 -5 0
-7 -4 -4 -10z"/>
<path d="M1330 1780 c0 -5 5 -10 10 -10 6 0 10 5 10 10 0 6 -4 10 -10 10 -5 0
-10 -4 -10 -10z"/>
<path d="M3420 1770 c0 -5 5 -10 10 -10 6 0 10 5 10 10 0 6 -4 10 -10 10 -5 0
-10 -4 -10 -10z"/>
<path d="M2850 1740 c0 -5 5 -10 10 -10 6 0 10 5 10 10 0 6 -4 10 -10 10 -5 0
-10 -4 -10 -10z"/>
<path d="M2590 1709 c0 -5 5 -7 10 -4 6 3 10 8 10 11 0 2 -4 4 -10 4 -5 0 -10
-5 -10 -11z"/>
<path d="M11310 1709 c0 -5 5 -7 10 -4 6 3 10 8 10 11 0 2 -4 4 -10 4 -5 0
-10 -5 -10 -11z"/>
<path d="M12510 1700 c0 -5 5 -10 10 -10 6 0 10 5 10 10 0 6 -4 10 -10 10 -5
0 -10 -4 -10 -10z"/>
<path d="M11460 1680 c0 -5 5 -10 11 -10 5 0 7 5 4 10 -3 6 -8 10 -11 10 -2 0
-4 -4 -4 -10z"/>
<path d="M4510 1670 c0 -5 5 -10 10 -10 6 0 10 5 10 10 0 6 -4 10 -10 10 -5 0
-10 -4 -10 -10z"/>
<path d="M8777 1664 c-14 -15 -6 -34 14 -34 14 0 19 5 17 17 -3 18 -20 27 -31
17z"/>
<path d="M2730 1650 c0 -5 5 -10 11 -10 5 0 7 5 4 10 -3 6 -8 10 -11 10 -2 0
-4 -4 -4 -10z"/>
<path d="M11920 1649 c0 -5 5 -7 10 -4 6 3 10 8 10 11 0 2 -4 4 -10 4 -5 0
-10 -5 -10 -11z"/>
<path d="M3390 1619 c0 -5 5 -7 10 -4 6 3 10 8 10 11 0 2 -4 4 -10 4 -5 0 -10
-5 -10 -11z"/>
<path d="M9420 1570 c0 -5 5 -10 10 -10 6 0 10 5 10 10 0 6 -4 10 -10 10 -5 0
-10 -4 -10 -10z"/>
<path d="M3650 1559 c0 -5 5 -7 10 -4 6 3 10 8 10 11 0 2 -4 4 -10 4 -5 0 -10
-5 -10 -11z"/>
<path d="M4760 1559 c0 -5 5 -7 10 -4 6 3 10 8 10 11 0 2 -4 4 -10 4 -5 0 -10
-5 -10 -11z"/>
<path d="M4605 1551 c-3 -5 -1 -12 5 -16 5 -3 10 1 10 9 0 18 -6 21 -15 7z"/>
<path d="M9479 1530 c-14 -21 -60 -29 -90 -16 -13 6 -16 0 -15 -38 1 -34 -5
-50 -23 -70 l-24 -26 25 0 c30 0 68 -38 68 -68 0 -25 18 -30 26 -8 8 21 62 38
84 26 27 -14 27 -14 26 34 -1 34 5 50 23 70 l24 26 -25 0 c-30 0 -68 38 -68
68 0 28 -13 28 -31 2z"/>
<path d="M11970 1534 c-14 -7 -33 -11 -42 -8 -12 4 -15 0 -11 -16 3 -11 -2
-31 -11 -45 -9 -14 -13 -25 -8 -25 14 0 52 -36 52 -49 0 -14 2 -14 36 4 16 8
36 13 44 10 11 -4 15 4 16 31 0 20 7 40 15 44 11 7 10 10 -6 16 -25 10 -45 29
-45 43 0 14 -8 13 -40 -5z"/>
<path d="M9570 1530 c0 -5 5 -10 11 -10 5 0 7 5 4 10 -3 6 -8 10 -11 10 -2 0
-4 -4 -4 -10z"/>
<path d="M3505 1520 c-3 -5 -1 -10 4 -10 6 0 11 5 11 10 0 6 -2 10 -4 10 -3 0
-8 -4 -11 -10z"/>
<path d="M5863 1504 c-7 -18 17 -38 31 -24 11 11 1 40 -14 40 -6 0 -13 -7 -17
-16z"/>
<path d="M257 1474 c-14 -15 -6 -34 14 -34 14 0 19 5 17 17 -3 18 -20 27 -31
17z"/>
<path d="M1345 1470 c3 -5 8 -10 11 -10 2 0 4 5 4 10 0 6 -5 10 -11 10 -5 0
-7 -4 -4 -10z"/>
<path d="M7220 1470 c0 -5 5 -10 10 -10 6 0 10 5 10 10 0 6 -4 10 -10 10 -5 0
-10 -4 -10 -10z"/>
<path d="M9310 1459 c0 -5 5 -7 10 -4 6 3 10 8 10 11 0 2 -4 4 -10 4 -5 0 -10
-5 -10 -11z"/>
<path d="M7150 1429 c-1 -32 -29 -64 -65 -73 l-29 -7 26 -22 c32 -27 43 -60
28 -86 -10 -20 -8 -20 35 -14 38 5 49 2 69 -16 24 -23 36 -19 36 11 0 23 30
58 51 58 28 0 31 14 7 32 -18 13 -23 27 -23 62 0 41 -2 45 -20 39 -34 -11 -68
-4 -92 19 l-23 21 0 -24z"/>
<path d="M7075 1420 c3 -5 8 -10 11 -10 2 0 4 5 4 10 0 6 -5 10 -11 10 -5 0
-7 -4 -4 -10z"/>
<path d="M1365 1410 c3 -5 8 -10 11 -10 2 0 4 5 4 10 0 6 -5 10 -11 10 -5 0
-7 -4 -4 -10z"/>
<path d="M10155 1400 c-3 -5 -1 -10 4 -10 6 0 11 5 11 10 0 6 -2 10 -4 10 -3
0 -8 -4 -11 -10z"/>
<path d="M1490 1390 c0 -5 5 -10 11 -10 5 0 7 5 4 10 -3 6 -8 10 -11 10 -2 0
-4 -4 -4 -10z"/>
<path d="M9605 1380 c-3 -5 -1 -10 4 -10 6 0 11 5 11 10 0 6 -2 10 -4 10 -3 0
-8 -4 -11 -10z"/>
<path d="M12630 1380 c0 -5 5 -10 11 -10 5 0 7 5 4 10 -3 6 -8 10 -11 10 -2 0
-4 -4 -4 -10z"/>
<path d="M1420 1370 c0 -5 -17 -12 -38 -16 -36 -6 -38 -8 -34 -39 2 -18 -1
-36 -8 -40 -8 -5 -1 -14 19 -26 17 -10 31 -26 31 -34 0 -19 7 -19 26 0 9 8 28
15 43 15 25 0 27 3 23 34 -2 19 1 37 8 41 8 5 1 14 -19 26 -17 10 -31 26 -31
34 0 8 -4 15 -10 15 -5 0 -10 -4 -10 -10z"/>
<path d="M7335 1370 c-3 -5 -1 -10 4 -10 6 0 11 5 11 10 0 6 -2 10 -4 10 -3 0
-8 -4 -11 -10z"/>
<path d="M10220 1370 c0 -6 -13 -18 -28 -28 -25 -15 -28 -21 -21 -46 5 -19 4
-35 -3 -43 -8 -10 -5 -13 16 -13 14 0 35 -9 45 -19 19 -19 20 -19 36 5 8 13
24 24 35 24 17 0 19 4 13 28 -4 15 -7 37 -6 49 1 17 -7 23 -33 28 -19 3 -34
10 -34 15 0 6 -4 10 -10 10 -5 0 -10 -5 -10 -10z"/>
<path d="M4095 1341 c-8 -15 3 -31 21 -31 9 0 14 7 12 17 -4 20 -24 28 -33 14z"/>
<path d="M6485 1340 c-8 -14 3 -30 21 -30 8 0 14 9 14 20 0 21 -24 28 -35 10z"/>
<path d="M2030 1320 c0 -5 5 -10 10 -10 6 0 10 5 10 10 0 6 -4 10 -10 10 -5 0
-10 -4 -10 -10z"/>
<path d="M9345 1310 c3 -5 8 -10 11 -10 2 0 4 5 4 10 0 6 -5 10 -11 10 -5 0
-7 -4 -4 -10z"/>
<path d="M10360 1310 c0 -5 5 -10 11 -10 5 0 7 5 4 10 -3 6 -8 10 -11 10 -2 0
-4 -4 -4 -10z"/>
<path d="M12520 1278 c-12 -10 -31 -18 -42 -18 -12 0 -16 -4 -12 -11 10 -17
11 -52 2 -71 -7 -14 -4 -18 11 -18 10 0 29 -8 41 -18 23 -18 24 -18 42 0 10
10 26 18 36 18 14 0 17 9 17 50 0 41 -3 50 -17 50 -10 0 -26 8 -36 18 -18 18
-19 18 -42 0z"/>
<path d="M1970 1263 c0 -48 -11 -70 -38 -83 -26 -11 -26 -12 -7 -25 40 -27 55
-49 55 -77 0 -30 11 -36 29 -14 15 18 60 17 90 -3 l24 -16 -6 33 c-6 27 -2 37
29 67 19 19 30 35 24 35 -22 0 -60 53 -60 83 0 29 0 29 -25 13 -31 -20 -64
-20 -93 0 -21 15 -22 14 -22 -13z"/>
<path d="M2215 1280 c-3 -5 -1 -10 4 -10 6 0 11 5 11 10 0 6 -2 10 -4 10 -3 0
-8 -4 -11 -10z"/>
<path d="M10105 1280 c-3 -5 -1 -10 4 -10 6 0 11 5 11 10 0 6 -2 10 -4 10 -3
0 -8 -4 -11 -10z"/>
<path d="M7040 1270 c0 -5 5 -10 10 -10 6 0 10 5 10 10 0 6 -4 10 -10 10 -5 0
-10 -4 -10 -10z"/>
<path d="M9490 1270 c0 -5 5 -10 10 -10 6 0 10 5 10 10 0 6 -4 10 -10 10 -5 0
-10 -4 -10 -10z"/>
<path d="M10040 1269 c0 -5 5 -7 10 -4 6 3 10 8 10 11 0 2 -4 4 -10 4 -5 0
-10 -5 -10 -11z"/>
<path d="M2165 1250 c-3 -5 -2 -10 4 -10 5 0 13 5 16 10 3 6 2 10 -4 10 -5 0
-13 -4 -16 -10z"/>
<path d="M1900 1240 c0 -5 5 -10 10 -10 6 0 10 5 10 10 0 6 -4 10 -10 10 -5 0
-10 -4 -10 -10z"/>
<path d="M8057 1243 c-3 -5 -2 -15 3 -22 10 -17 43 -6 38 12 -6 15 -34 22 -41
10z"/>
<path d="M12340 1209 c0 -5 5 -7 10 -4 6 3 10 8 10 11 0 2 -4 4 -10 4 -5 0
-10 -5 -10 -11z"/>
<path d="M12660 1210 c0 -5 5 -10 10 -10 6 0 10 5 10 10 0 6 -4 10 -10 10 -5
0 -10 -4 -10 -10z"/>
<path d="M11131 1186 c-9 -10 -8 -16 3 -25 10 -9 16 -8 25 3 9 10 8 16 -3 25
-10 9 -16 8 -25 -3z"/>
<path d="M7160 1170 c0 -5 5 -10 11 -10 5 0 7 5 4 10 -3 6 -8 10 -11 10 -2 0
-4 -4 -4 -10z"/>
<path d="M2814 1145 c-3 -8 -3 -19 0 -24 9 -13 36 -2 36 14 0 19 -30 27 -36
10z"/>
<path d="M4775 1140 c-8 -14 3 -30 21 -30 8 0 14 9 14 20 0 21 -24 28 -35 10z"/>
<path d="M5365 1130 c-8 -14 3 -30 21 -30 8 0 14 9 14 20 0 21 -24 28 -35 10z"/>
<path d="M793 1114 c-7 -18 17 -38 31 -24 11 11 1 40 -14 40 -6 0 -13 -7 -17
-16z"/>
<path d="M10155 1120 c-3 -5 -1 -10 4 -10 6 0 11 5 11 10 0 6 -2 10 -4 10 -3
0 -8 -4 -11 -10z"/>
<path d="M1470 1110 c0 -5 5 -10 11 -10 5 0 7 5 4 10 -3 6 -8 10 -11 10 -2 0
-4 -4 -4 -10z"/>
<path d="M1905 1090 c-3 -5 -1 -10 4 -10 6 0 11 5 11 10 0 6 -2 10 -4 10 -3 0
-8 -4 -11 -10z"/>
<path d="M11980 1070 c0 -5 5 -10 11 -10 5 0 7 5 4 10 -3 6 -8 10 -11 10 -2 0
-4 -4 -4 -10z"/>
<path d="M9065 1040 c3 -5 8 -10 11 -10 2 0 4 5 4 10 0 6 -5 10 -11 10 -5 0
-7 -4 -4 -10z"/>
<path d="M12630 1039 c0 -5 5 -7 10 -4 6 3 10 8 10 11 0 2 -4 4 -10 4 -5 0
-10 -5 -10 -11z"/>
<path d="M9128 1008 c-12 -18 -25 -23 -62 -23 -37 0 -45 -3 -40 -15 18 -40 16
-72 -5 -94 -23 -25 -19 -36 14 -36 28 0 65 -35 65 -63 1 -21 2 -20 25 8 21 26
31 30 69 29 40 -1 44 1 36 17 -16 30 -11 71 12 96 l21 23 -30 0 c-32 0 -73 35
-73 63 0 24 -15 21 -32 -5z"/>
<path d="M9220 1020 c0 -5 5 -10 11 -10 5 0 7 5 4 10 -3 6 -8 10 -11 10 -2 0
-4 -4 -4 -10z"/>
<path d="M2040 1010 c0 -5 5 -10 10 -10 6 0 10 5 10 10 0 6 -4 10 -10 10 -5 0
-10 -4 -10 -10z"/>
<path d="M3340 997 c0 -27 -26 -51 -65 -61 l-28 -7 23 -24 c23 -25 30 -66 16
-98 -7 -15 -5 -16 19 -7 32 12 62 5 91 -22 21 -19 22 -19 28 8 9 36 42 64 75
64 l26 0 -29 23 c-27 22 -29 27 -23 71 6 43 5 47 -11 40 -29 -13 -63 -7 -86
15 -28 27 -36 26 -36 -2z"/>
<path d="M3265 1000 c3 -5 8 -10 11 -10 2 0 4 5 4 10 0 6 -5 10 -11 10 -5 0
-7 -4 -4 -10z"/>
<path d="M11920 957 c0 -21 -30 -57 -48 -57 -8 0 -6 -10 9 -29 12 -16 19 -36
16 -43 -3 -10 5 -14 29 -15 19 -1 41 -7 49 -13 12 -10 15 -9 15 6 0 11 11 28
25 38 23 17 23 19 8 42 -8 13 -13 32 -10 43 4 15 -1 18 -27 16 -17 -2 -39 4
-48 13 -16 14 -18 14 -18 -1z"/>
<path d="M9900 950 c0 -5 5 -10 11 -10 5 0 7 5 4 10 -3 6 -8 10 -11 10 -2 0
-4 -4 -4 -10z"/>
<path d="M3525 930 c-3 -5 -1 -10 4 -10 6 0 11 5 11 10 0 6 -2 10 -4 10 -3 0
-8 -4 -11 -10z"/>
<path d="M8970 919 c0 -5 5 -7 10 -4 6 3 10 8 10 11 0 2 -4 4 -10 4 -5 0 -10
-5 -10 -11z"/>
<path d="M10610 920 c0 -5 5 -10 10 -10 6 0 10 5 10 10 0 6 -4 10 -10 10 -5 0
-10 -4 -10 -10z"/>
<path d="M6595 900 c3 -5 8 -10 11 -10 2 0 4 5 4 10 0 6 -5 10 -11 10 -5 0 -7
-4 -4 -10z"/>
<path d="M10675 891 c-7 -22 -38 -35 -79 -32 -24 2 -28 0 -21 -16 12 -27 7
-74 -10 -93 -22 -24 -19 -30 14 -30 31 0 71 -38 71 -69 1 -11 8 -7 25 14 21
26 31 30 69 29 43 -1 44 0 34 20 -16 28 -11 76 9 98 15 17 15 18 -8 18 -29 1
-64 28 -73 58 -9 27 -23 28 -31 3z"/>
<path d="M10760 900 c0 -5 5 -10 10 -10 6 0 10 5 10 10 0 6 -4 10 -10 10 -5 0
-10 -4 -10 -10z"/>
<path d="M6660 874 c-18 -25 -71 -39 -97 -26 -16 9 -18 5 -18 -38 0 -38 -5
-52 -24 -67 l-24 -20 28 -7 c34 -9 64 -43 65 -75 l0 -24 25 23 c24 23 66 30
96 16 14 -6 16 -1 12 37 -5 39 -2 47 23 71 27 24 27 26 8 26 -30 0 -65 34 -73
72 -7 32 -7 32 -21 12z"/>
<path d="M9275 870 c3 -5 8 -10 11 -10 2 0 4 5 4 10 0 6 -5 10 -11 10 -5 0 -7
-4 -4 -10z"/>
<path d="M6740 860 c0 -5 5 -10 10 -10 6 0 10 5 10 10 0 6 -4 10 -10 10 -5 0
-10 -4 -10 -10z"/>
<path d="M3225 850 c3 -5 8 -10 11 -10 2 0 4 5 4 10 0 6 -5 10 -11 10 -5 0 -7
-4 -4 -10z"/>
<path d="M7590 830 c0 -15 5 -20 18 -18 9 2 17 10 17 18 0 8 -8 16 -17 18 -13
2 -18 -3 -18 -18z"/>
<path d="M9840 821 c0 -11 -11 -28 -25 -39 -19 -15 -22 -21 -11 -25 8 -3 18
-21 21 -40 6 -30 9 -33 36 -29 16 2 35 0 42 -6 9 -8 16 -4 25 18 7 16 22 32
32 35 18 6 18 7 -1 26 -10 10 -19 29 -19 42 0 20 -4 23 -34 19 -18 -2 -37 1
-40 7 -11 18 -26 13 -26 -8z"/>
<path d="M4240 810 c0 -15 5 -20 18 -18 9 2 17 10 17 18 0 8 -8 16 -17 18 -13
2 -18 -3 -18 -18z"/>
<path d="M8585 820 c-3 -5 -1 -10 4 -10 6 0 11 5 11 10 0 6 -2 10 -4 10 -3 0
-8 -4 -11 -10z"/>
<path d="M6480 800 c0 -5 5 -10 10 -10 6 0 10 5 10 10 0 6 -4 10 -10 10 -5 0
-10 -4 -10 -10z"/>
<path d="M8435 800 c3 -5 8 -10 11 -10 2 0 4 5 4 10 0 6 -5 10 -11 10 -5 0 -7
-4 -4 -10z"/>
<path d="M8504 795 c-12 -33 -41 -55 -74 -55 l-31 0 18 -27 c19 -28 22 -63 8
-95 -6 -15 -2 -18 18 -18 40 0 75 -17 82 -39 7 -24 25 -28 25 -6 0 23 49 65
77 65 23 0 23 1 7 25 -16 24 -16 60 0 96 6 14 0 16 -34 15 -34 0 -45 4 -64 29
-23 28 -25 29 -32 10z"/>
<path d="M10515 800 c-3 -5 -1 -10 4 -10 6 0 11 5 11 10 0 6 -2 10 -4 10 -3 0
-8 -4 -11 -10z"/>
<path d="M3480 780 c0 -5 5 -10 10 -10 6 0 10 5 10 10 0 6 -4 10 -10 10 -5 0
-10 -4 -10 -10z"/>
<path d="M9025 780 c-3 -5 -1 -10 4 -10 6 0 11 5 11 10 0 6 -2 10 -4 10 -3 0
-8 -4 -11 -10z"/>
<path d="M12095 750 c3 -5 8 -10 11 -10 2 0 4 5 4 10 0 6 -5 10 -11 10 -5 0
-7 -4 -4 -10z"/>
<path d="M3330 740 c0 -5 5 -10 10 -10 6 0 10 5 10 10 0 6 -4 10 -10 10 -5 0
-10 -4 -10 -10z"/>
<path d="M1300 720 c0 -5 5 -10 10 -10 6 0 10 5 10 10 0 6 -4 10 -10 10 -5 0
-10 -4 -10 -10z"/>
<path d="M6775 710 c-3 -5 -1 -10 4 -10 6 0 11 5 11 10 0 6 -2 10 -4 10 -3 0
-8 -4 -11 -10z"/>
<path d="M8670 690 c0 -5 5 -10 10 -10 6 0 10 5 10 10 0 6 -4 10 -10 10 -5 0
-10 -4 -10 -10z"/>
<path d="M1240 645 c0 -34 -20 -65 -51 -79 -12 -5 -12 -7 0 -12 30 -14 61 -58
61 -87 0 -29 1 -29 18 -14 24 22 71 22 101 0 24 -16 24 -16 18 9 -8 30 18 88
38 88 22 0 28 20 8 27 -28 9 -53 45 -53 76 0 29 -9 34 -27 16 -16 -16 -61 -18
-80 -3 -27 21 -33 17 -33 -21z"/>
<path d="M8365 660 c3 -5 8 -10 11 -10 2 0 4 5 4 10 0 6 -5 10 -11 10 -5 0 -7
-4 -4 -10z"/>
<path d="M10575 661 c-3 -5 -1 -12 5 -16 5 -3 10 1 10 9 0 18 -6 21 -15 7z"/>
<path d="M6510 650 c0 -5 5 -10 10 -10 6 0 10 5 10 10 0 6 -4 10 -10 10 -5 0
-10 -4 -10 -10z"/>
<path d="M1170 640 c0 -5 5 -10 11 -10 5 0 7 5 4 10 -3 6 -8 10 -11 10 -2 0
-4 -4 -4 -10z"/>
<path d="M1440 639 c0 -5 5 -7 10 -4 6 3 10 8 10 11 0 2 -4 4 -10 4 -5 0 -10
-5 -10 -11z"/>
<path d="M2380 640 c0 -5 5 -10 10 -10 6 0 10 5 10 10 0 6 -4 10 -10 10 -5 0
-10 -4 -10 -10z"/>
<path d="M5830 632 c0 -11 -12 -30 -27 -43 -17 -13 -23 -23 -16 -26 7 -2 15
-19 19 -38 4 -25 11 -33 27 -32 12 1 33 -2 47 -6 22 -5 27 -2 37 23 6 17 19
30 28 30 14 0 14 4 -5 27 -14 18 -19 35 -15 51 5 20 3 22 -11 14 -18 -10 -51
-5 -71 11 -10 7 -13 4 -13 -11z"/>
<path d="M10730 634 c0 -8 5 -12 10 -9 6 4 8 11 5 16 -9 14 -15 11 -15 -7z"/>
<path d="M270 624 c0 -8 5 -12 10 -9 6 4 8 11 5 16 -9 14 -15 11 -15 -7z"/>
<path d="M2444 603 c-18 -23 -28 -28 -63 -27 -35 1 -41 -1 -35 -15 13 -29 5
-74 -17 -98 l-22 -23 29 0 c36 -1 60 -18 74 -56 11 -27 12 -28 25 -10 22 29
57 43 88 35 25 -7 28 -5 21 9 -12 27 -7 82 10 101 18 20 12 31 -16 31 -23 0
-49 24 -63 57 l-10 24 -21 -28z"/>
<path d="M2530 610 c0 -5 5 -10 10 -10 6 0 10 5 10 10 0 6 -4 10 -10 10 -5 0
-10 -4 -10 -10z"/>
<path d="M197 604 c-4 -4 -7 -15 -7 -24 0 -24 -42 -60 -70 -60 l-23 0 24 -26
c18 -20 24 -36 23 -70 -1 -41 1 -44 20 -37 33 10 57 6 80 -16 28 -27 36 -26
36 2 0 26 29 54 67 63 l26 7 -23 19 c-19 16 -24 28 -23 68 1 45 -1 49 -18 39
-24 -12 -69 -1 -89 23 -8 11 -19 16 -23 12z"/>
<path d="M3780 600 c0 -5 5 -10 10 -10 6 0 10 5 10 10 0 6 -4 10 -10 10 -5 0
-10 -4 -10 -10z"/>
<path d="M6660 599 c0 -5 5 -7 10 -4 6 3 10 8 10 11 0 2 -4 4 -10 4 -5 0 -10
-5 -10 -11z"/>
<path d="M120 590 c0 -5 5 -10 11 -10 5 0 7 5 4 10 -3 6 -8 10 -11 10 -2 0 -4
-4 -4 -10z"/>
<path d="M4964 565 c-9 -23 10 -40 25 -22 9 11 8 17 -4 27 -12 10 -16 9 -21
-5z"/>
<path d="M3720 539 c-1 -38 -14 -60 -49 -79 l-25 -13 25 -13 c31 -16 53 -56
46 -84 -4 -17 -2 -20 11 -14 38 16 80 16 108 -2 l27 -18 -7 27 c-7 31 24 87
50 87 22 0 16 20 -10 29 -23 9 -36 36 -36 79 0 25 -7 27 -33 8 -20 -16 -65
-10 -89 12 -17 14 -18 13 -18 -19z"/>
<path d="M8610 550 c0 -5 5 -10 10 -10 6 0 10 5 10 10 0 6 -4 10 -10 10 -5 0
-10 -4 -10 -10z"/>
<path d="M8455 540 c-3 -5 -1 -10 4 -10 6 0 11 5 11 10 0 6 -2 10 -4 10 -3 0
-8 -4 -11 -10z"/>
<path d="M12532 533 c2 -10 10 -18 18 -18 8 0 16 8 18 18 2 12 -3 17 -18 17
-15 0 -20 -5 -18 -17z"/>
<path d="M3645 530 c-3 -5 -1 -10 4 -10 6 0 11 5 11 10 0 6 -2 10 -4 10 -3 0
-8 -4 -11 -10z"/>
<path d="M375 520 c-3 -5 1 -10 10 -10 9 0 13 5 10 10 -3 6 -8 10 -10 10 -2 0
-7 -4 -10 -10z"/>
<path d="M2280 520 c0 -5 5 -10 10 -10 6 0 10 5 10 10 0 6 -4 10 -10 10 -5 0
-10 -4 -10 -10z"/>
<path d="M3915 520 c-3 -5 -1 -10 4 -10 6 0 11 5 11 10 0 6 -2 10 -4 10 -3 0
-8 -4 -11 -10z"/>
<path d="M5740 509 c0 -5 5 -7 10 -4 6 3 10 8 10 11 0 2 -4 4 -10 4 -5 0 -10
-5 -10 -11z"/>
<path d="M1440 490 c0 -5 5 -10 10 -10 6 0 10 5 10 10 0 6 -4 10 -10 10 -5 0
-10 -4 -10 -10z"/>
<path d="M5375 490 c3 -5 8 -10 11 -10 2 0 4 5 4 10 0 6 -5 10 -11 10 -5 0 -7
-4 -4 -10z"/>
<path d="M8435 490 c-3 -5 -1 -10 4 -10 6 0 11 5 11 10 0 6 -2 10 -4 10 -3 0
-8 -4 -11 -10z"/>
<path d="M1170 480 c0 -5 5 -10 10 -10 6 0 10 5 10 10 0 6 -4 10 -10 10 -5 0
-10 -4 -10 -10z"/>
<path d="M5965 480 c3 -5 8 -10 11 -10 2 0 4 5 4 10 0 6 -5 10 -11 10 -5 0 -7
-4 -4 -10z"/>
<path d="M740 460 c0 -15 5 -20 18 -18 9 2 17 10 17 18 0 8 -8 16 -17 18 -13
2 -18 -3 -18 -18z"/>
<path d="M4425 470 c3 -5 8 -10 11 -10 2 0 4 5 4 10 0 6 -5 10 -11 10 -5 0 -7
-4 -4 -10z"/>
<path d="M7160 466 c-17 -21 -51 -24 -83 -8 -29 13 -29 13 -23 -16 9 -37 -7
-79 -33 -87 -24 -7 -28 -25 -7 -25 25 0 66 -46 66 -74 0 -30 7 -32 30 -11 19
18 66 22 94 10 17 -7 18 -5 12 19 -7 30 6 62 38 87 l21 17 -27 7 c-30 8 -58
44 -58 75 0 23 -13 26 -30 6z"/>
<path d="M5436 451 c-21 -23 -65 -28 -96 -11 -17 9 -19 6 -17 -31 1 -34 -3
-45 -26 -63 -32 -25 -34 -36 -9 -36 27 0 62 -42 62 -75 l0 -28 23 21 c24 23
81 30 92 12 14 -23 26 -8 19 25 -5 30 -2 39 25 65 l31 31 -29 10 c-29 10 -48
38 -53 78 l-3 23 -19 -21z"/>
<path d="M7250 450 c0 -5 5 -10 10 -10 6 0 10 5 10 10 0 6 -4 10 -10 10 -5 0
-10 -4 -10 -10z"/>
<path d="M80 440 c0 -5 5 -10 11 -10 5 0 7 5 4 10 -3 6 -8 10 -11 10 -2 0 -4
-4 -4 -10z"/>
<path d="M4486 431 c-21 -23 -65 -28 -96 -11 -17 9 -19 6 -17 -31 1 -34 -3
-45 -26 -63 -32 -25 -34 -36 -9 -36 27 0 62 -42 62 -75 l0 -28 23 21 c25 24
66 28 98 11 19 -10 20 -8 14 25 -6 31 -3 39 24 66 l31 31 -29 10 c-29 10 -48
38 -53 78 l-3 23 -19 -21z"/>
<path d="M5520 440 c0 -5 5 -10 11 -10 5 0 7 5 4 10 -3 6 -8 10 -11 10 -2 0
-4 -4 -4 -10z"/>
<path d="M11395 430 c-8 -14 3 -30 21 -30 8 0 14 9 14 20 0 21 -24 28 -35 10z"/>
<path d="M4570 420 c0 -5 5 -10 11 -10 5 0 7 5 4 10 -3 6 -8 10 -11 10 -2 0
-4 -4 -4 -10z"/>
<path d="M9210 420 c0 -5 5 -10 10 -10 6 0 10 5 10 10 0 6 -4 10 -10 10 -5 0
-10 -4 -10 -10z"/>
<path d="M1310 410 c0 -5 5 -10 11 -10 5 0 7 5 4 10 -3 6 -8 10 -11 10 -2 0
-4 -4 -4 -10z"/>
<path d="M9995 400 c-3 -5 -1 -10 4 -10 6 0 11 5 11 10 0 6 -2 10 -4 10 -3 0
-8 -4 -11 -10z"/>
<path d="M10700 399 c0 -5 5 -7 10 -4 6 3 10 8 10 11 0 2 -4 4 -10 4 -5 0 -10
-5 -10 -11z"/>
<path d="M12000 394 c-9 -10 -24 -14 -41 -12 -25 4 -27 1 -27 -24 1 -15 -7
-37 -17 -48 -17 -19 -17 -20 -1 -20 20 0 39 -17 49 -42 5 -16 9 -16 37 -2 17
9 38 13 46 10 11 -4 14 -1 10 12 -3 9 1 30 9 46 19 35 19 36 0 36 -8 0 -24 14
-34 30 -16 27 -19 29 -31 14z"/>
<path d="M7883 386 c-6 -12 -22 -19 -42 -20 -24 -1 -30 -5 -25 -19 3 -9 -1
-31 -10 -47 -13 -28 -13 -30 3 -30 21 0 51 -30 51 -51 1 -11 4 -10 14 3 7 10
27 21 45 24 23 5 30 11 26 23 -2 9 1 28 9 42 12 24 11 26 -14 37 -15 7 -32 22
-37 34 -9 21 -10 21 -20 4z"/>
<path d="M4300 380 c0 -5 5 -10 10 -10 6 0 10 5 10 10 0 6 -4 10 -10 10 -5 0
-10 -4 -10 -10z"/>
<path d="M9140 362 c0 -31 -21 -55 -60 -70 l-25 -10 27 -12 c28 -13 43 -48 39
-89 -2 -20 0 -22 16 -16 35 15 73 12 89 -7 24 -25 34 -23 34 10 1 34 19 58 56
72 l29 12 -27 14 c-28 15 -44 59 -33 94 6 20 -9 28 -20 10 -10 -16 -81 -12
-95 5 -19 23 -30 18 -30 -13z"/>
<path d="M2335 370 c3 -5 8 -10 11 -10 2 0 4 5 4 10 0 6 -5 10 -11 10 -5 0 -7
-4 -4 -10z"/>
<path d="M3640 370 c0 -5 5 -10 10 -10 6 0 10 5 10 10 0 6 -4 10 -10 10 -5 0
-10 -4 -10 -10z"/>
<path d="M5835 370 c-3 -5 -1 -10 4 -10 6 0 11 5 11 10 0 6 -2 10 -4 10 -3 0
-8 -4 -11 -10z"/>
<path d="M9070 360 c0 -5 5 -10 10 -10 6 0 10 5 10 10 0 6 -4 10 -10 10 -5 0
-10 -4 -10 -10z"/>
<path d="M10049 352 c-27 -22 -60 -23 -96 -4 -21 12 -21 10 -16 -23 5 -30 1
-39 -27 -65 -29 -27 -30 -31 -13 -36 28 -10 53 -46 53 -76 0 -31 11 -36 30
-13 14 17 62 20 91 5 17 -10 19 -7 19 26 0 27 7 43 31 65 l30 28 -24 6 c-27 7
-45 35 -49 79 l-3 28 -26 -20z"/>
<path d="M2490 350 c0 -5 5 -10 11 -10 5 0 7 5 4 10 -3 6 -8 10 -11 10 -2 0
-4 -4 -4 -10z"/>
<path d="M3150 348 c0 -20 -32 -48 -54 -48 -16 0 -16 -1 -1 -17 11 -10 15 -28
13 -47 -3 -29 -1 -31 31 -32 19 0 37 -6 39 -12 5 -15 22 -16 22 -1 0 16 26 39
44 39 19 0 21 11 4 28 -6 6 -11 24 -10 40 0 25 -3 30 -24 30 -14 0 -34 8 -44
17 -17 15 -20 15 -20 3z"/>
<path d="M10660 342 c0 -11 -11 -30 -23 -42 -23 -22 -23 -24 -5 -42 10 -10 18
-29 18 -43 0 -23 2 -24 20 -13 15 10 27 10 50 1 27 -10 30 -9 30 8 0 10 10 29
21 40 12 12 17 24 12 28 -16 10 -34 51 -28 61 3 5 -9 6 -30 3 -21 -3 -41 -1
-50 7 -13 10 -15 9 -15 -8z"/>
<path d="M9335 330 c-3 -5 -1 -10 4 -10 6 0 11 5 11 10 0 6 -2 10 -4 10 -3 0
-8 -4 -11 -10z"/>
<path d="M10130 330 c0 -5 5 -10 10 -10 6 0 10 5 10 10 0 6 -4 10 -10 10 -5 0
-10 -4 -10 -10z"/>
<path d="M1807 313 c-3 -5 -2 -15 3 -22 10 -17 43 -6 38 12 -6 15 -34 22 -41
10z"/>
<path d="M9870 310 c0 -5 5 -10 11 -10 5 0 7 5 4 10 -3 6 -8 10 -11 10 -2 0
-4 -4 -4 -10z"/>
<path d="M6284 295 c-3 -8 -3 -19 0 -24 9 -13 36 -2 36 14 0 19 -30 27 -36 10z"/>
<path d="M7270 300 c0 -5 5 -10 10 -10 6 0 10 5 10 10 0 6 -4 10 -10 10 -5 0
-10 -4 -10 -10z"/>
<path d="M5535 280 c4 -6 11 -8 16 -5 14 9 11 15 -7 15 -8 0 -12 -5 -9 -10z"/>
<path d="M4590 259 c0 -5 5 -7 10 -4 6 3 10 8 10 11 0 2 -4 4 -10 4 -5 0 -10
-5 -10 -11z"/>
<path d="M7005 260 c3 -5 8 -10 11 -10 2 0 4 5 4 10 0 6 -5 10 -11 10 -5 0 -7
-4 -4 -10z"/>
<path d="M5270 240 c0 -5 5 -10 10 -10 6 0 10 5 10 10 0 6 -4 10 -10 10 -5 0
-10 -4 -10 -10z"/>
<path d="M6965 230 c-3 -5 -1 -10 4 -10 6 0 11 5 11 10 0 6 -2 10 -4 10 -3 0
-8 -4 -11 -10z"/>
<path d="M11895 230 c-3 -5 -1 -10 4 -10 6 0 11 5 11 10 0 6 -2 10 -4 10 -3 0
-8 -4 -11 -10z"/>
<path d="M4325 220 c3 -5 8 -10 11 -10 2 0 4 5 4 10 0 6 -5 10 -11 10 -5 0 -7
-4 -4 -10z"/>
<path d="M9050 210 c0 -5 5 -10 10 -10 6 0 10 5 10 10 0 6 -4 10 -10 10 -5 0
-10 -4 -10 -10z"/>
<path d="M7150 199 c0 -5 5 -7 10 -4 6 3 10 8 10 11 0 2 -4 4 -10 4 -5 0 -10
-5 -10 -11z"/>
<path d="M5420 190 c0 -5 5 -10 11 -10 5 0 7 5 4 10 -3 6 -8 10 -11 10 -2 0
-4 -4 -4 -10z"/>
<path d="M3250 170 c0 -5 5 -10 10 -10 6 0 10 5 10 10 0 6 -4 10 -10 10 -5 0
-10 -4 -10 -10z"/>
<path d="M4470 170 c0 -5 5 -10 11 -10 5 0 7 5 4 10 -3 6 -8 10 -11 10 -2 0
-4 -4 -4 -10z"/>
<path d="M9315 170 c3 -5 8 -10 11 -10 2 0 4 5 4 10 0 6 -5 10 -11 10 -5 0 -7
-4 -4 -10z"/>
<path d="M3295 120 c3 -5 8 -10 11 -10 2 0 4 5 4 10 0 6 -5 10 -11 10 -5 0 -7
-4 -4 -10z"/>
<path d="M9175 110 c3 -5 8 -10 11 -10 2 0 4 5 4 10 0 6 -5 10 -11 10 -5 0 -7
-4 -4 -10z"/>
<path d="M10020 90 c0 -5 5 -10 11 -10 5 0 7 5 4 10 -3 6 -8 10 -11 10 -2 0
-4 -4 -4 -10z"/>
</g>
</svg>
